<?xml version="1.0" encoding="UTF-8"?> <!-- Generator: Adobe Illustrator 26.0.2, SVG Export Plug-In . SVG Version: 6.00 Build 0) --> <svg xmlns="http://www.w3.org/2000/svg" xmlns:xlink="http://www.w3.org/1999/xlink" version="1.1" id="Layer_1" x="0px" y="0px" viewBox="0 0 190.5 116.1" style="enable-background:new 0 0 190.5 116.1;" xml:space="preserve"> <style type="text/css"> .st0{fill:#000C56;} </style> <g> <path class="st0" d="M113,115.2c-2.5,0-4.9-0.8-6.9-2.3l-7-5.2c-3.2,5.2-10.3,7.1-15.8,4l-0.8-0.4c-1.5-0.9-2.8-2.1-3.8-3.5 c-1.6,0.8-3.4,1.2-5.2,1.2c-2.2,0-4.2-0.5-5.7-1.4l-0.5-0.3c-2.1-1.1-3.7-2.8-4.7-4.7c-3,0.9-6.3,0.6-9.1-0.9l-0.7-0.3 c-4-2.2-6.2-6.4-6-10.7c-1.6-0.2-3-0.6-4.2-1.4L42,89.1C36.4,86,34.4,79,37.4,73.4C32.7,70.5,28.8,67,25,62.5 c-0.5,0.7-1.3,1.2-2.1,1.5l-0.4,0.1h-0.9c-0.5,0-1.4,0-2.3-0.6L3,54.5c-1.9-1.2-2.7-3.4-1.8-5.5l0.1-0.2L23.5,4.4 c0.5-1,1.4-1.9,2.5-2.2c1.2-0.4,2.5-0.3,3.6,0.4l15.9,9.2c1.6,0.9,2.3,2.5,2.2,4.2c2.1,0.4,4.3,0.4,6.5,0.2c3-1.1,5.5-2.3,7.9-3.7 l0.1-0.1c9.2-4.9,21.6-11.6,32.3-8.8c2.6-0.9,5.4-1.4,8.9-1.6h0.1c5.2,0,12.4,3.1,20,6.3l0.7,0.3c6.5,2.7,13.6,5.6,19,6.5 c0.2-1.2,0.8-2.3,1.8-3l0.3-0.2l16.1-9.4c1.1-0.6,2.4-0.8,3.5-0.4s2,1.2,2.5,2.3L189.8,49c0.9,2.3,0,4.7-2,5.6l-16.5,9 c-0.8,0.4-1.5,0.5-2,0.5h-0.9L168,64c-0.8-0.3-1.5-0.8-2.1-1.4c-1.8,1.7-3.9,3-6.2,4c1.3,3.5,0.7,7.6-1.6,10.8l-0.5,0.7 c-2.1,2.9-5.5,4.6-8.9,4.8c-0.3,1.8-1,3.6-2.1,5.3l-0.5,0.7c-1.8,2.5-4.5,4.1-7.4,4.5c-0.6,0.2-1.2,0.2-1.6,0.2 c-0.2,1.9-1,3.7-2.1,5.3l-0.5,0.7c-1.8,2.5-4.5,4.1-7.4,4.5c-0.6,0.2-1.2,0.2-1.6,0.2c-0.2,1.9-1,3.7-2.1,5.3l-0.5,0.7 c-1.8,2.5-4.6,4.2-7.7,4.6C114.2,115.2,113.6,115.2,113,115.2z M102,102.8l7.5,5.5c1.3,1,2.8,1.4,4.4,1.1c1.6-0.2,3-1.1,3.9-2.4 l0.5-0.6c0.8-1.2,1.2-2.4,1.2-3.6l-1.4-1l-8-5.8c-1.3-0.9-1.5-2.7-0.6-4s2.7-1.5,4-0.6l8,5.8l2.1,1.4c0.3,0.1,0.7,0.1,1.2,0.1h0.5 l0.5-0.1c1.5-0.2,2.9-1,3.9-2.3l0.4-0.6c0.7-1.1,1.1-2.2,1.2-3.4l-14.4-10.6c-1.3-0.9-1.5-2.7-0.6-4s2.7-1.5,4-0.6l14.3,10.5 l0.5,0.2c0.3,0.1,0.8,0.1,1.4,0.1h0.5l0.3-0.1h0.2c1.5-0.2,2.9-1,3.9-2.3l0.4-0.6c0.7-1,1.1-2.1,1.2-3.2l-16.3-12.1 c-1.3-0.9-1.5-2.7-0.6-4s2.7-1.5,4-0.6L146,76.7l0.6,0.2c2.4,0.7,4.9-0.2,6.4-2.2l0.5-0.6c1.5-2.1,1.6-4.9,0.1-7L103,30.3h-4.2 c-2.6,0-7,2.8-8.3,5.2l-3.4,6.6c-2.8,5.4-8.9,8.3-14.9,6.9c-5.2-1-8.9-6.1-8.3-11.4C64.2,32.4,65.2,27,67,21l0.1-0.4 c1.3-2.9,6.2-6.6,11.8-9.9c-5,1.8-9.9,4.4-14.1,6.7c-2.8,1.7-5.7,3-9.2,4.3l-0.3,0.1H55c-3.4,0.4-6.6,0.3-9.8-0.4L27.8,57 c3.8,4.9,7.8,8.5,12.5,11.5l3-4.9c1.5-2.7,4-4.6,7-5.5s6.1-0.5,8.8,1l0.7,0.4c1.2,0.7,2.4,1.7,3.3,2.8c3.5-2.4,8.2-2.7,12.2-0.5 l0.7,0.4c2.8,1.6,4.8,4.3,5.6,7.3c2.2-0.1,4.4,0.3,6.4,1.4l0.7,0.4c3.4,2,5.5,5.4,5.8,9.1c1.7,0.1,3.4,0.6,5,1.4l0.7,0.3 c2.7,1.5,4.7,4,5.5,7c0.9,3,0.5,6.2-1,8.9L102,102.8z M85.3,106.5l0.6,0.3c2.9,1.6,6.9,0.6,8.4-2.2l0.1-0.1l1.7-2.7l3.6-6.5 c0.8-1.4,0.9-3,0.5-4.6c-0.4-1.5-1.4-2.8-2.8-3.6l-0.6-0.3c-1.5-0.8-3.1-1-4.7-0.6l-4.6,1.2l1.1-4.6c0.6-2.6-0.5-5.3-2.8-6.7 l-0.5-0.3c-1.7-0.9-3.5-1-5.2-0.3l-4,1.5l0.2-4.3c0.1-2.3-1-4.5-3-5.6l-0.5-0.3c-2.9-1.6-6.3-0.8-7.9,1.7l-3.3,5l-1.8-5.7 c-0.4-1.3-1.5-2.6-2.7-3.3l-0.6-0.3c-2.8-1.6-6.6-0.5-8.2,2.3l-0.1,0.1L42.4,76c-1.6,2.8-0.5,6.5,2.3,8.1l0.8,0.4 c0.7,0.4,1.7,0.7,2.9,0.7c0.2,0,0.7-0.1,1.3-0.2l5.6-1.4L53,88.9c-1.2,2.8-0.2,6.1,2.5,7.6l0.7,0.4c1.9,1.1,4.4,1,6.4-0.4l4.4-2.9 v5.1l0.1,0.2c0.4,1.5,1.4,2.8,2.8,3.5l0.8,0.4c0.7,0.4,1.7,0.7,2.9,0.7c1.6,0,3.2-0.6,4.1-1.7l3.4-3.8l1.4,4.9 C82.9,104.2,83.9,105.6,85.3,106.5z M98.8,24.6h6.1L156,62c2.9-1,5.1-2.5,7.1-4.6l-17.8-36.2c-6.5-0.4-15-3.9-23.2-7.2l-0.7-0.3 c-6.5-2.7-13.7-5.8-17.7-5.9C100.5,8,98,8.4,95.8,9.3L90,11.4c-9.2,4-16.5,9.4-17.6,11.4c-1.6,5.5-2.5,10.5-2.8,15.2v0.2 c-0.3,2.4,1.4,4.8,3.8,5.3c3.4,0.8,7-0.9,8.6-4l3.4-6.6C87.8,28.6,94.1,24.6,98.8,24.6z M149.7,17.3l20,40.8l14.3-7.8L162.9,8.2 l-13.8,8l0.3,0.5C149.5,16.9,149.6,17.1,149.7,17.3z M6.8,50.3L21,58.1l2.4-4.8l18.2-37.2L27.9,8.2L6.8,50.3z"></path> <path class="st0" d="M50.4,90.9c-0.5,0-0.9-0.1-1.4-0.4c-1.4-0.8-1.9-2.5-1.1-3.9l11.9-21.2c0.8-1.4,2.5-1.9,3.9-1.1 s1.9,2.5,1.1,3.9L52.9,89.4C52.4,90.3,51.4,90.9,50.4,90.9z"></path> <path class="st0" d="M64,102.6c-0.5,0-0.9-0.1-1.4-0.4c-1.4-0.8-1.9-2.5-1.1-3.9l15-27c0.8-1.4,2.5-1.9,3.9-1.1s1.9,2.5,1.1,3.9 l-15,27C65.9,102,65,102.6,64,102.6z"></path> <path class="st0" d="M79.4,107.9c-0.5,0-0.9-0.1-1.4-0.4c-1.4-0.8-1.9-2.5-1.1-3.9L89,82c0.8-1.4,2.5-1.9,3.9-1.1s1.9,2.5,1.1,3.9 l-12,21.7C81.4,107.3,80.4,107.9,79.4,107.9z"></path> </g> </svg> 