<?xml version="1.0" encoding="UTF-8"?> <svg xmlns="http://www.w3.org/2000/svg" width="83" height="86" viewBox="0 0 83 86" fill="none"><path d="M41.3887 9.95117C41.5145 9.95117 41.6391 9.92635 41.7554 9.87814C41.8716 9.82992 41.9772 9.75925 42.0661 9.67017C42.155 9.5811 42.2254 9.47537 42.2734 9.35903C42.3214 9.24269 42.346 9.11803 42.3457 8.99219V0.957032C42.3457 0.703211 42.2449 0.459786 42.0654 0.280308C41.8859 0.10083 41.6425 0 41.3887 0C41.1349 0 40.8914 0.10083 40.7119 0.280308C40.5325 0.459786 40.4316 0.703211 40.4316 0.957032V8.99219C40.4314 9.11803 40.456 9.24269 40.5039 9.35903C40.5519 9.47537 40.6224 9.5811 40.7113 9.67017C40.8002 9.75925 40.9057 9.82992 41.022 9.87814C41.1382 9.92635 41.2628 9.95117 41.3887 9.95117Z" fill="#000C56"></path><path d="M60.3332 15.5C60.4946 15.6164 60.6888 15.6786 60.8879 15.6777C61.0407 15.6776 61.1913 15.6411 61.3272 15.5711C61.4631 15.5011 61.5803 15.3998 61.6691 15.2754L66.3195 8.72071C66.3924 8.61812 66.4443 8.50218 66.4723 8.37952C66.5004 8.25686 66.504 8.12987 66.4829 8.00582C66.4619 7.88177 66.4166 7.76307 66.3497 7.65651C66.2828 7.54995 66.1955 7.45762 66.093 7.38477C65.9904 7.31193 65.8744 7.26001 65.7518 7.23197C65.6291 7.20394 65.5021 7.20034 65.3781 7.22137C65.254 7.24241 65.1353 7.28768 65.0288 7.35459C64.9222 7.4215 64.8299 7.50874 64.757 7.61134L60.1047 14.166C59.9586 14.3734 59.9006 14.6302 59.9435 14.8802C59.9863 15.1302 60.1264 15.3531 60.3332 15.5Z" fill="#000C56"></path><path d="M81.8613 35.2812L73.8242 35.2988C73.5704 35.2988 73.327 35.3997 73.1475 35.5791C72.968 35.7586 72.8672 36.002 72.8672 36.2559C72.8672 36.5097 72.968 36.7531 73.1475 36.9326C73.327 37.1121 73.5704 37.2129 73.8242 37.2129L81.8613 37.1973C82.1079 37.1861 82.3407 37.0803 82.5113 36.9019C82.6819 36.7234 82.777 36.4861 82.777 36.2393C82.777 35.9924 82.6819 35.7551 82.5113 35.5766C82.3407 35.3982 82.1079 35.2924 81.8613 35.2812Z" fill="#000C56"></path><path d="M76.1222 63.2813L69.466 58.7754C69.3619 58.705 69.2449 58.6558 69.1217 58.6306C68.9986 58.6054 68.8717 58.6047 68.7483 58.6286C68.6248 58.6524 68.5073 58.7004 68.4024 58.7696C68.2975 58.8389 68.2073 58.9281 68.1369 59.0323C68.0665 59.1364 68.0173 59.2534 67.9921 59.3765C67.9669 59.4997 67.9662 59.6266 67.99 59.75C68.0139 59.8734 68.0618 59.9909 68.1311 60.0958C68.2003 60.2007 68.2896 60.291 68.3937 60.3614L75.048 64.8653C75.1522 64.9358 75.2692 64.9851 75.3924 65.0105C75.5156 65.0358 75.6425 65.0366 75.7661 65.0128C75.8896 64.9891 76.0072 64.9412 76.1122 64.872C76.2172 64.8028 76.3076 64.7136 76.3781 64.6094C76.4486 64.5053 76.498 64.3883 76.5233 64.2651C76.5486 64.1419 76.5494 64.0149 76.5256 63.8914C76.5019 63.7679 76.454 63.6503 76.3848 63.5452C76.3156 63.4402 76.2264 63.3499 76.1222 63.2793V63.2813Z" fill="#000C56"></path><path d="M21.0997 15.2754C21.1886 15.3998 21.3058 15.5011 21.4417 15.5711C21.5776 15.6411 21.7282 15.6776 21.881 15.6777C22.08 15.6786 22.2742 15.6164 22.4357 15.5C22.6421 15.3528 22.7819 15.1298 22.8243 14.8798C22.8668 14.6298 22.8085 14.3732 22.6622 14.166L18.0099 7.61134C17.8583 7.41583 17.6371 7.28644 17.3924 7.25021C17.1477 7.21398 16.8985 7.27371 16.6968 7.41692C16.4951 7.56012 16.3565 7.77573 16.31 8.01869C16.2636 8.26166 16.3128 8.51318 16.4474 8.72071L21.0997 15.2754Z" fill="#000C56"></path><path d="M8.95283 37.2129C9.20665 37.2129 9.45007 37.1121 9.62955 36.9326C9.80903 36.7531 9.90986 36.5097 9.90986 36.2559C9.90986 36.002 9.80903 35.7586 9.62955 35.5791C9.45007 35.3997 9.20665 35.2988 8.95283 35.2988L0.915717 35.2812C0.66912 35.2924 0.436316 35.3982 0.265751 35.5766C0.0951864 35.7551 0 35.9924 0 36.2393C0 36.4861 0.0951864 36.7234 0.265751 36.9019C0.436316 37.0803 0.66912 37.1861 0.915717 37.1973L8.95283 37.2129Z" fill="#000C56"></path><path d="M13.3113 58.7754L6.65502 63.2813C6.55088 63.3518 6.46166 63.4422 6.39245 63.5472C6.32323 63.6522 6.27538 63.7698 6.25162 63.8933C6.22786 64.0169 6.22866 64.1438 6.25397 64.267C6.27929 64.3902 6.32862 64.5072 6.39916 64.6114C6.46969 64.7155 6.56004 64.8047 6.66506 64.874C6.77008 64.9432 6.8877 64.991 7.01121 65.0148C7.13471 65.0385 7.26169 65.0377 7.38489 65.0124C7.50809 64.9871 7.6251 64.9378 7.72923 64.8672L14.3835 60.3614C14.5938 60.2192 14.739 59.9993 14.7872 59.75C14.8354 59.5008 14.7826 59.2426 14.6404 59.0323C14.4982 58.822 14.2783 58.6768 14.029 58.6286C13.7798 58.5804 13.5216 58.6333 13.3113 58.7754Z" fill="#000C56"></path><path d="M44.3443 16.0371H40.6568C40.4029 16.0371 40.1595 16.1379 39.98 16.3174C39.8006 16.4969 39.6997 16.7403 39.6997 16.9941V33.2695H34.231L31.6411 28.418C32.6382 27.56 33.2785 26.3603 33.4366 25.0545C33.5946 23.7487 33.259 22.4309 32.4955 21.3598C31.7319 20.2887 30.5957 19.5416 29.3097 19.2652C28.0237 18.9887 26.6808 19.2029 25.5446 19.8656C24.4083 20.5283 23.5608 21.5917 23.1682 22.8471C22.7757 24.1025 22.8665 25.4593 23.4228 26.6513C23.9792 27.8432 24.9609 28.7842 26.1753 29.2895C27.3897 29.7949 28.7492 29.8282 29.9868 29.3828L32.813 34.6777C32.8944 34.8308 33.0159 34.9588 33.1646 35.0479C33.3133 35.1371 33.4834 35.184 33.6568 35.1836H39.6978V42.75H26.7486C26.5098 41.4533 25.795 40.2926 24.7444 39.4959C23.6938 38.6992 22.3833 38.3239 21.0703 38.4438C19.7572 38.5636 18.5364 39.17 17.6474 40.1438C16.7585 41.1176 16.2656 42.3885 16.2656 43.707C16.2656 45.0256 16.7585 46.2965 17.6474 47.2703C18.5364 48.2441 19.7572 48.8504 21.0703 48.9703C22.3833 49.0902 23.6938 48.7149 24.7444 47.9182C25.795 47.1214 26.5098 45.9608 26.7486 44.6641H39.6997V52.6035H36.3599C36.2242 52.6033 36.09 52.6321 35.9664 52.688C35.8428 52.744 35.7325 52.8257 35.6431 52.9277L31.9126 57.1465C30.8503 56.3626 29.5335 56.004 28.2204 56.1411C26.9074 56.2782 25.6929 56.901 24.8154 57.8873C23.9379 58.8736 23.4607 60.1523 23.4774 61.4724C23.4941 62.7925 24.0035 64.0587 24.9057 65.0225C25.8078 65.9863 27.0376 66.5782 28.3537 66.682C29.6698 66.7858 30.9772 66.3941 32.0193 65.5836C33.0614 64.7731 33.7631 63.6025 33.9865 62.3013C34.21 61.0002 33.9391 59.6625 33.2271 58.5508L36.7915 54.5176H39.6997V70.2969H29.4966C29.2423 70.2969 28.9984 70.3979 28.8185 70.5778C28.6387 70.7576 28.5376 71.0015 28.5376 71.2559V82.1445C28.5387 82.9526 28.8603 83.7273 29.4319 84.2985C30.0035 84.8698 30.7784 85.1909 31.5865 85.1914H49.729C50.5365 85.1899 51.3103 84.8683 51.8811 84.2972C52.4518 83.726 52.7729 82.952 52.774 82.1445V71.5762C52.8094 71.4758 52.8273 71.3701 52.8267 71.2637V60.2637C52.834 59.6099 53.021 58.9708 53.3672 58.4162C53.7134 57.8616 54.2055 57.4129 54.7896 57.1191C58.3097 55.2924 61.2627 52.537 63.3284 49.1516C65.3941 45.7662 66.4938 41.8799 66.5083 37.9141C66.5357 32.2207 64.2818 26.8047 60.1587 22.6641C55.97 18.4521 50.2843 16.0696 44.3443 16.0371ZM24.8384 24.416C24.8384 23.7496 25.0361 23.0981 25.4063 22.544C25.7766 21.9899 26.3029 21.5581 26.9187 21.3032C27.5344 21.0482 28.212 20.9816 28.8656 21.1118C29.5192 21.2419 30.1195 21.563 30.5906 22.0344C31.0617 22.5057 31.3824 23.1063 31.5122 23.7599C31.642 24.4136 31.575 25.0911 31.3197 25.7067C31.0644 26.3223 30.6322 26.8483 30.0779 27.2183C29.5236 27.5883 28.872 27.7855 28.2056 27.7852C27.3125 27.7841 26.4564 27.4288 25.8251 26.7971C25.1938 26.1654 24.8389 25.3091 24.8384 24.416ZM21.5533 47.0918C20.8869 47.0918 20.2355 46.8942 19.6815 46.524C19.1274 46.1538 18.6956 45.6276 18.4406 45.012C18.1856 44.3963 18.1188 43.7189 18.2488 43.0654C18.3788 42.4118 18.6997 41.8115 19.1709 41.3403C19.6421 40.8691 20.2424 40.5483 20.896 40.4183C21.5495 40.2883 22.2269 40.355 22.8426 40.61C23.4582 40.865 23.9844 41.2968 24.3546 41.8509C24.7248 42.4049 24.9224 43.0563 24.9224 43.7227C24.9214 44.6159 24.5661 45.4722 23.9345 46.1039C23.3028 46.7355 22.4465 47.0908 21.5533 47.0918ZM28.7798 64.7832C28.113 64.7836 27.461 64.5862 26.9064 64.216C26.3518 63.8458 25.9194 63.3195 25.6639 62.7035C25.4085 62.0876 25.3415 61.4097 25.4713 60.7556C25.6012 60.1016 25.9221 59.5007 26.3934 59.0291C26.8648 58.5574 27.4655 58.2362 28.1195 58.1059C28.7735 57.9757 29.4514 58.0423 30.0675 58.2974C30.6836 58.5525 31.2102 58.9846 31.5807 59.539C31.9512 60.0934 32.149 60.7453 32.149 61.4121C32.1464 62.3047 31.7901 63.1598 31.1583 63.7902C30.5264 64.4206 29.6704 64.7749 28.7779 64.7754L28.7798 64.7832ZM41.6158 44.9219C42.5689 44.9863 44.0083 45.0508 45.6333 45.0098C44.645 53.9453 44.4615 66.9512 44.4283 70.3125H41.6158V44.9219ZM50.8599 72.2207V76.9922H30.4497V72.2207H50.8599ZM49.729 83.2852H31.5865C31.4377 83.2852 31.2904 83.2559 31.1529 83.1989C31.0155 83.142 30.8906 83.0586 30.7854 82.9534C30.6802 82.8482 30.5968 82.7233 30.5399 82.5859C30.4829 82.4484 30.4536 82.3011 30.4536 82.1523V78.9063H50.8599V82.1523C50.8599 82.4524 50.7408 82.7403 50.5288 82.9527C50.3168 83.1651 50.0291 83.2846 49.729 83.2852ZM53.9029 55.4219C53.0081 55.8768 52.2558 56.5692 51.7284 57.4232C51.2009 58.2772 50.9187 59.2599 50.9126 60.2637V70.3047H46.3404C46.395 63.4219 46.7193 52.3223 47.5572 44.8965C51.3169 44.584 55.3462 43.5469 56.315 40.6387C57.3501 37.5332 55.6236 34.9746 53.4732 34.1309C51.3951 33.3203 48.6353 33.9844 47.1568 37.291C46.6333 38.4629 46.2095 40.5254 45.8658 43.0723C44.4481 43.1266 43.0286 43.1012 41.6138 42.9961V17.959H44.3482C49.7764 17.9896 54.9721 20.1662 58.8013 24.0137C62.5611 27.793 64.6177 32.7246 64.5943 37.9062C64.5799 41.5234 63.5761 45.0677 61.6915 48.1552C59.807 51.2427 57.1135 53.7557 53.9029 55.4219ZM47.8033 42.9414C48.1099 40.752 48.4751 39.0352 48.9048 38.0723C49.6861 36.3438 50.7993 35.7285 51.8189 35.7285C52.1478 35.7292 52.4738 35.7915 52.7798 35.9121C54.147 36.4414 55.1665 38.0254 54.4986 40.0293C53.9224 41.7637 51.0493 42.6191 47.8033 42.9414Z" fill="#000C56"></path></svg> 