<?xml version="1.0" encoding="UTF-8"?> <svg xmlns="http://www.w3.org/2000/svg" width="82" height="77" viewBox="0 0 82 77" fill="none"><path d="M80.7749 8.60772H75.9873V1.37872C75.9874 1.19604 75.9229 1.0192 75.8052 0.879463C75.6876 0.739723 75.5243 0.64607 75.3442 0.615053C63.2459 -1.35302 50.8556 1.44292 40.7749 8.41582C30.6936 1.44387 18.3035 -1.35198 6.20508 0.615044C6.02505 0.646059 5.86177 0.73971 5.74409 0.879451C5.62642 1.01919 5.56193 1.19603 5.56201 1.37871V8.60771H0.7749C0.673127 8.60767 0.572343 8.62768 0.478308 8.66661C0.384273 8.70554 0.298832 8.76262 0.226867 8.83458C0.154902 8.90655 0.0978251 8.99199 0.058898 9.08602C0.019971 9.18006 -4.32988e-05 9.28084 7.03316e-08 9.38261V68.5428C-4.32988e-05 68.6446 0.019971 68.7453 0.058898 68.8394C0.0978251 68.9334 0.154902 69.0189 0.226867 69.0908C0.298832 69.1628 0.384273 69.2199 0.478308 69.2588C0.572343 69.2977 0.673127 69.3177 0.7749 69.3177H31.1693C31.3633 71.169 32.2354 72.883 33.6177 74.1297C35.0001 75.3763 36.7948 76.0673 38.6563 76.0696H41.8496C43.7116 76.0694 45.5075 75.3791 46.8902 74.1321C48.273 72.885 49.1445 71.1698 49.3364 69.3177H80.7749C80.8767 69.3177 80.9775 69.2977 81.0715 69.2588C81.1655 69.2199 81.251 69.1628 81.3229 69.0908C81.3949 69.0189 81.452 68.9334 81.4909 68.8394C81.5298 68.7453 81.5499 68.6446 81.5498 68.5428V9.38262C81.5499 9.28085 81.5298 9.18007 81.4909 9.08603C81.452 8.99199 81.3949 8.90656 81.3229 8.83459C81.251 8.76262 81.1655 8.70555 81.0715 8.66662C80.9775 8.62769 80.8767 8.60768 80.7749 8.60772ZM74.4375 2.03643V59.638C73.8646 59.5508 73.2976 59.4783 72.7344 59.4144C72.5522 59.3936 72.3726 59.378 72.1917 59.3597C71.8088 59.3209 71.4275 59.2855 71.0493 59.2567C70.8452 59.2413 70.6423 59.2284 70.4395 59.2157C70.0815 59.1935 69.7259 59.1756 69.3726 59.1621C69.1748 59.1545 68.9771 59.1466 68.7806 59.1417C68.4031 59.1322 68.0293 59.129 67.6572 59.129C67.4969 59.129 67.3352 59.1262 67.176 59.1278C66.6494 59.1334 66.1274 59.1463 65.6122 59.1695C65.5605 59.172 65.5104 59.1762 65.4589 59.1788C64.9937 59.2013 64.5333 59.2306 64.0779 59.2667C63.9148 59.2796 63.7544 59.2958 63.5926 59.3103C63.248 59.3412 62.9056 59.3745 62.5669 59.4127C62.3911 59.4325 62.217 59.4535 62.043 59.4752C61.7158 59.5157 61.3915 59.5595 61.0702 59.6065C60.9053 59.6305 60.7402 59.6539 60.5769 59.6795C60.2214 59.7352 59.8708 59.7954 59.5227 59.8581C59.4055 59.8793 59.2864 59.8985 59.1699 59.9204C58.7035 60.0082 58.2437 60.1015 57.7905 60.2004C57.7353 60.2125 57.682 60.2259 57.6269 60.2384C57.2329 60.3262 56.8442 60.4178 56.4608 60.5133C56.3288 60.5463 56.1997 60.5807 56.0691 60.6144C55.7629 60.6935 55.4602 60.7746 55.1609 60.8577C55.0219 60.8964 54.8843 60.9357 54.7468 60.9755C54.453 61.0602 54.1631 61.1468 53.8772 61.2355C53.7544 61.2735 53.631 61.3109 53.5096 61.3495C53.1753 61.4557 52.8465 61.564 52.5233 61.6746C52.4604 61.6961 52.3956 61.7166 52.333 61.7384C51.9366 61.8753 51.5485 62.0149 51.1687 62.1571C51.1284 62.1721 51.0899 62.1876 51.0498 62.2027C50.7212 62.3266 50.3991 62.4519 50.0835 62.5784C49.9856 62.6178 49.8904 62.6572 49.7937 62.6966C49.5354 62.8021 49.2815 62.908 49.032 63.0145C48.9324 63.0572 48.8335 63.0999 48.7355 63.1424C48.4848 63.2517 48.2394 63.361 47.9991 63.4705C47.9194 63.5067 47.8387 63.5428 47.7602 63.5791C47.4648 63.7154 47.1772 63.8514 46.8972 63.9871L46.8476 64.0108C46.5384 64.1612 46.2392 64.3106 45.9502 64.4591C45.9182 64.4754 45.8886 64.4913 45.857 64.5077C45.6124 64.6337 45.3754 64.7583 45.1458 64.8816C45.0774 64.9183 45.0119 64.9541 44.9448 64.9904C44.7523 65.0951 44.5653 65.1982 44.3836 65.3C44.3182 65.3366 44.2537 65.373 44.19 65.409C44.0059 65.5136 43.8286 65.6159 43.6568 65.7166C43.6082 65.7449 43.5584 65.7738 43.511 65.8018C43.2986 65.9273 43.094 66.0501 42.9014 66.1683L42.8991 66.1696C42.698 66.2931 42.5092 66.4115 42.3302 66.5255C42.2978 66.5461 42.2691 66.5649 42.2374 66.5853C42.1004 66.6731 41.9695 66.7579 41.8464 66.8389C41.7976 66.8712 41.7526 66.9012 41.7059 66.9323C41.6546 66.9666 41.5985 67.0033 41.5498 67.036V9.76739C51.1267 3.0938 62.8903 0.328519 74.4375 2.03643ZM7.11181 2.03643C18.6591 0.330726 30.422 3.09583 40 9.76743V67.0359C39.9797 67.0223 39.9529 67.0053 39.9321 66.9915C39.7549 66.8725 39.563 66.7462 39.3517 66.6104L39.2864 66.5679C39.0508 66.417 38.7926 66.2566 38.5174 66.0889C38.4644 66.0567 38.409 66.0239 38.3545 65.991C38.1126 65.8453 37.8567 65.6947 37.587 65.5394C37.5289 65.5058 37.4739 65.4737 37.4145 65.4398C37.0889 65.2545 36.7466 65.0645 36.3833 64.8698C36.3418 64.8475 36.2977 64.825 36.2557 64.8025C35.9334 64.631 35.5953 64.4568 35.2449 64.2808C35.1575 64.2369 35.0711 64.1935 34.982 64.1495C34.1751 63.7503 33.2991 63.3455 32.3562 62.946C32.2525 62.9019 32.1475 62.8586 32.042 62.8148C31.6235 62.6407 31.193 62.4687 30.7505 62.2988C30.68 62.2718 30.6123 62.2443 30.5413 62.2173C30.0318 62.0247 29.5065 61.8366 28.9654 61.6531C28.8628 61.6183 28.7576 61.5848 28.654 61.5503C28.1971 61.3985 27.7297 61.2512 27.252 61.1083C27.128 61.0712 27.0059 61.0336 26.8806 60.9971C26.3031 60.8294 25.7141 60.6679 25.1084 60.5167C25.0498 60.502 24.9888 60.4891 24.9299 60.4745C24.385 60.3406 23.8275 60.2159 23.2609 60.0981C23.1071 60.066 22.9531 60.0347 22.7976 60.0041C22.1953 59.8851 21.5844 59.774 20.9591 59.6761C20.924 59.6707 20.8901 59.6639 20.8549 59.6585C20.1966 59.557 19.5227 59.4721 18.8401 59.3975C18.6763 59.3796 18.5109 59.3643 18.3457 59.3482C17.7757 59.292 17.1978 59.2463 16.6122 59.2111C16.4706 59.2027 16.3313 59.1914 16.189 59.1841C15.4822 59.1485 14.7648 59.1293 14.0366 59.1267C13.9926 59.1267 13.9505 59.1233 13.9063 59.1233C13.6692 59.1233 13.4268 59.1326 13.1875 59.1365C12.921 59.1406 12.6563 59.142 12.3872 59.1511C12.0674 59.1619 11.7427 59.1819 11.4192 59.1997C11.1675 59.2136 10.9182 59.2232 10.6643 59.2416C10.2925 59.2684 9.91533 59.3067 9.53872 59.3433C9.32718 59.3638 9.11819 59.3786 8.9053 59.4024C8.31263 59.4685 7.71481 59.5471 7.11184 59.638V2.03643H7.11181ZM1.54981 10.1575H5.56202V60.5491C5.56204 60.662 5.58673 60.7736 5.63437 60.876C5.682 60.9783 5.75144 61.0691 5.8378 61.1418C5.92417 61.2146 6.02539 61.2676 6.13437 61.2971C6.24336 61.3266 6.35748 61.332 6.46876 61.3128C7.32594 61.1646 8.16895 61.0535 9.00465 60.9588C9.18775 60.9381 9.37086 60.917 9.55299 60.8987C10.3687 60.8167 11.1762 60.7535 11.9692 60.718C12.0647 60.7137 12.158 60.7134 12.2529 60.7098C12.9878 60.6818 13.7114 60.6741 14.4253 60.6824C14.5719 60.6843 14.7199 60.6839 14.8655 60.6871C15.6318 60.7038 16.3856 60.7393 17.1267 60.7935C17.2545 60.803 17.3799 60.8155 17.5071 60.826C18.187 60.8819 18.8558 60.9518 19.5133 61.0357C19.6074 61.0478 19.7034 61.0574 19.797 61.0701C20.5115 61.1663 21.2097 61.2796 21.8945 61.4051C22.0274 61.4294 22.1585 61.4551 22.2901 61.4806C22.9586 61.6092 23.617 61.7469 24.2554 61.8989L24.3042 61.9099C24.9636 62.0676 25.6021 62.2394 26.2275 62.4176C26.3491 62.4523 26.4701 62.4873 26.5906 62.5226C27.2034 62.7025 27.8038 62.8888 28.3816 63.0839C28.4043 63.0914 28.4257 63.0995 28.4484 63.1073C29.0119 63.2982 29.5545 63.4962 30.0832 63.6972C30.1811 63.7345 30.2803 63.7716 30.3771 63.8091C30.9071 64.0145 31.4209 64.2233 31.9133 64.4341C31.9799 64.4625 32.0433 64.4914 32.1093 64.5199C32.5611 64.7157 32.9962 64.9121 33.4147 65.1089C33.481 65.14 33.55 65.1713 33.6154 65.2024C34.0605 65.414 34.4851 65.6238 34.8894 65.8318C34.9636 65.8698 35.0348 65.9074 35.1077 65.9452C35.4845 66.141 35.8466 66.3345 36.1852 66.5222C36.2101 66.536 36.2372 66.5502 36.2618 66.564C36.6212 66.7642 36.9543 66.9572 37.2687 67.1434C37.3287 67.1791 37.3876 67.2142 37.446 67.2491C37.7477 67.4301 38.0346 67.6058 38.2904 67.7679H1.5498L1.54981 10.1575ZM46.0703 72.7742C45.5172 73.3299 44.8594 73.7703 44.1349 74.0699C43.4104 74.3695 42.6336 74.5225 41.8496 74.5198H38.6563C37.2057 74.5181 35.8052 73.9896 34.7151 73.0328C33.6249 72.0759 32.9193 70.7557 32.7295 69.3177H47.7773C47.6123 70.6288 47.011 71.8462 46.0703 72.7742H46.0703ZM80 67.7679H43.2593C43.521 67.602 43.8136 67.4227 44.1234 67.2371L44.2629 67.1539C44.5864 66.962 44.9305 66.7626 45.3022 66.5559L45.324 66.544C45.6835 66.3443 46.07 66.1378 46.4728 65.9289C46.5291 65.8997 46.5841 65.8707 46.6412 65.8414C47.0562 65.6283 47.4926 65.4127 47.9504 65.1947C48.0002 65.1711 48.0524 65.1473 48.1028 65.1237C48.5425 64.9169 49.0009 64.7101 49.478 64.5033C49.5259 64.4825 49.5718 64.4618 49.6201 64.441C50.1226 64.2258 50.6473 64.0126 51.189 63.8029C51.2727 63.7704 51.3583 63.7385 51.4429 63.7063C51.9912 63.4974 52.554 63.2919 53.1397 63.0939L53.1565 63.088C53.7418 62.8904 54.3503 62.7015 54.9717 62.5193C55.0833 62.4864 55.1955 62.454 55.3083 62.422C55.9394 62.2421 56.5835 62.0687 57.249 61.9097L57.2767 61.9034C57.9224 61.7494 58.5886 61.6102 59.2651 61.4802C59.3931 61.4557 59.5203 61.4305 59.6491 61.407C60.3355 61.2812 61.0352 61.1676 61.7512 61.0712C61.8447 61.0587 61.9407 61.0488 62.0347 61.0367C62.6919 60.9525 63.3612 60.8826 64.0427 60.8269C64.1689 60.8165 64.2934 60.8041 64.4204 60.7947C65.1611 60.7401 65.9151 60.7046 66.6824 60.6881C66.8284 60.6849 66.9767 60.6852 67.1238 60.6835C67.8364 60.675 68.5588 60.6827 69.2922 60.7106C69.3888 60.7142 69.4834 60.7145 69.5803 60.7187C70.3726 60.7541 71.1789 60.8173 71.9939 60.899C72.1771 60.9175 72.3616 60.9383 72.5459 60.9593C73.3811 61.0538 74.2236 61.1649 75.0805 61.3129C75.1918 61.332 75.3059 61.3267 75.4149 61.2971C75.5239 61.2676 75.6251 61.2146 75.7115 61.1419C75.7979 61.0691 75.8673 60.9784 75.9149 60.876C75.9626 60.7736 75.9873 60.6621 75.9873 60.5492V10.1575H80L80 67.7679Z" fill="#000C56"></path><path d="M48.0493 24.4875C48.1899 24.4876 48.3278 24.4493 48.4482 24.3767C54.4218 21.0925 61.1115 19.3281 67.9277 19.239C68.0301 19.2413 68.132 19.2232 68.2274 19.1859C68.3227 19.1485 68.4098 19.0926 68.4834 19.0215C68.5571 18.9503 68.6159 18.8652 68.6565 18.7711C68.697 18.6771 68.7186 18.5759 68.7198 18.4735C68.721 18.3711 68.7019 18.2694 68.6636 18.1744C68.6253 18.0794 68.5685 17.9929 68.4966 17.92C68.4247 17.8471 68.339 17.7891 68.2446 17.7495C68.1501 17.7099 68.0487 17.6894 67.9463 17.6892C60.8336 17.7126 53.8454 19.5579 47.6484 23.0491C47.5033 23.1365 47.3908 23.2691 47.3283 23.4265C47.2657 23.5839 47.2564 23.7575 47.3019 23.9207C47.3474 24.0839 47.4451 24.2277 47.5801 24.3301C47.7151 24.4325 47.8799 24.4878 48.0493 24.4875Z" fill="#000C56"></path><path d="M48.0491 36.3093C48.1898 36.3094 48.3278 36.2709 48.4481 36.198C54.3032 32.968 60.8536 31.2045 67.5389 31.0583C67.6678 31.0583 67.7977 31.0593 67.9275 31.0608C68.1323 31.0606 68.3288 30.9804 68.4753 30.8374C68.6218 30.6944 68.7066 30.4998 68.7117 30.2952C68.713 30.1934 68.6941 30.0924 68.6563 29.9979C68.6185 29.9034 68.5624 29.8173 68.4913 29.7445C68.4202 29.6717 68.3355 29.6136 68.2419 29.5735C68.1484 29.5334 68.0479 29.5122 67.9461 29.511C60.834 29.5388 53.8469 31.3838 47.6483 34.8708C47.5032 34.9583 47.3908 35.0909 47.3282 35.2483C47.2657 35.4057 47.2564 35.5793 47.3019 35.7425C47.3474 35.9056 47.445 36.0494 47.58 36.1518C47.715 36.2542 47.8797 36.3095 48.0491 36.3093Z" fill="#000C56"></path><path d="M48.0493 48.1317C48.1899 48.1318 48.3278 48.0934 48.4482 48.0209C54.4186 44.7287 61.1103 42.9638 67.9277 42.8832C68.1316 42.8803 68.3266 42.7993 68.4726 42.6568C68.6185 42.5144 68.7041 42.3213 68.7119 42.1176C68.7131 42.0158 68.6943 41.9148 68.6565 41.8203C68.6187 41.7258 68.5626 41.6397 68.4915 41.5669C68.4204 41.4941 68.3357 41.436 68.2421 41.3959C68.1486 41.3558 68.048 41.3346 67.9463 41.3334C60.8338 41.3586 53.8461 43.2038 47.6484 46.6932C47.5033 46.7807 47.3908 46.9132 47.3282 47.0707C47.2657 47.2281 47.2564 47.4017 47.3019 47.5649C47.3474 47.7281 47.4451 47.8719 47.5801 47.9743C47.7151 48.0766 47.8799 48.1319 48.0493 48.1317Z" fill="#000C56"></path><path d="M13.6202 19.2391C20.44 19.3032 27.1358 21.0692 33.1002 24.3768C33.2761 24.4808 33.4861 24.511 33.6842 24.4609C33.8824 24.4109 34.0528 24.2845 34.1582 24.1095C34.2637 23.9344 34.2957 23.7247 34.2474 23.5261C34.199 23.3276 34.0742 23.1561 33.9 23.0492C27.7033 19.5566 20.7147 17.7113 13.6016 17.6893C13.4999 17.6905 13.3993 17.7118 13.3058 17.7519C13.2122 17.7919 13.1275 17.85 13.0564 17.9228C12.9853 17.9957 12.9292 18.0818 12.8914 18.1763C12.8536 18.2707 12.8348 18.3717 12.836 18.4735C12.8354 18.5758 12.8555 18.6771 12.8949 18.7715C12.9344 18.8658 12.9924 18.9513 13.0656 19.0227C13.1388 19.0942 13.2256 19.1502 13.3209 19.1873C13.4162 19.2245 13.5179 19.2421 13.6202 19.2391Z" fill="#000C56"></path><path d="M13.6207 31.0608C20.4364 31.1546 27.1252 32.9187 33.1007 36.1985C33.2767 36.3025 33.4866 36.3327 33.6847 36.2826C33.8829 36.2326 34.0533 36.1062 34.1588 35.9312C34.2642 35.7561 34.2963 35.5464 34.2479 35.3478C34.1995 35.1493 34.0747 34.9778 33.9005 34.8708C27.8168 31.4712 20.9867 29.6291 14.0187 29.5085C13.88 29.5085 13.7408 29.509 13.6022 29.511C13.4997 29.5111 13.3983 29.5316 13.3037 29.5711C13.2092 29.6107 13.1235 29.6687 13.0515 29.7416C12.9795 29.8145 12.9227 29.901 12.8844 29.9961C12.8461 30.0911 12.827 30.1928 12.8282 30.2953C12.8294 30.3977 12.8509 30.4989 12.8915 30.593C12.9321 30.6871 12.991 30.7722 13.0647 30.8434C13.1384 30.9146 13.2255 30.9705 13.3209 31.0078C13.4164 31.0451 13.5183 31.0631 13.6207 31.0608H13.6207Z" fill="#000C56"></path><path d="M13.6202 42.8832C20.4396 42.9505 27.1347 44.7163 33.1002 48.0209C33.2762 48.1247 33.486 48.1548 33.6841 48.1047C33.8822 48.0546 34.0524 47.9283 34.1579 47.7533C34.2633 47.5783 34.2954 47.3687 34.2471 47.1702C34.1988 46.9717 34.0741 46.8003 33.9 46.6932C27.7012 43.2061 20.714 41.3611 13.6017 41.3334C13.4992 41.3336 13.3979 41.3541 13.3034 41.3937C13.2089 41.4333 13.1233 41.4912 13.0513 41.5642C12.9794 41.6371 12.9227 41.7236 12.8843 41.8186C12.846 41.9136 12.827 42.0152 12.8282 42.1176C12.8294 42.2201 12.8509 42.3212 12.8915 42.4153C12.9321 42.5094 12.9909 42.5944 13.0645 42.6656C13.1382 42.7368 13.2252 42.7927 13.3206 42.83C13.416 42.8674 13.5178 42.8854 13.6202 42.8832Z" fill="#000C56"></path></svg> 