<?xml version="1.0" encoding="UTF-8"?> <svg xmlns="http://www.w3.org/2000/svg" viewBox="0 0 595.3 481.9"><path d="m.9 367.4v-5.4h30.1v5.4h-12.3v49.6h-5.6v-49.6z" fill="#fff"></path><path d="m38.1 360.7h5.2v23c2.1-2.8 4.4-4.9 7-6.3 2.5-1.4 5.3-2.1 8.3-2.1s5.7.8 8.1 2.3 4.1 3.6 5.2 6.2 1.7 6.7 1.7 12.2v21h-5.2v-19.4c0-4.7-.2-7.8-.6-9.4-.6-2.7-1.8-4.7-3.5-6.1s-3.9-2-6.7-2c-3.2 0-6 1-8.5 3.1s-4.2 4.7-4.9 7.8c-.5 2-.7 5.7-.7 11.1v14.9h-5.2v-56.3z" fill="#fff"></path><path d="m118.9 403.5 4.4 2.3c-1.4 2.8-3.1 5.1-5 6.9-1.9 1.7-4 3.1-6.4 4s-5 1.4-8 1.4c-6.6 0-11.8-2.2-15.6-6.5-3.7-4.3-5.6-9.3-5.6-14.7 0-5.2 1.6-9.8 4.7-13.8 4-5.1 9.4-7.7 16.1-7.7 6.9 0 12.5 2.6 16.6 7.9 2.9 3.7 4.4 8.3 4.5 13.9h-36.5c.1 4.7 1.6 8.6 4.5 11.6s6.5 4.5 10.8 4.5c2.1 0 4.1-.4 6-1.1 2-.7 3.6-1.7 5-2.9 1.5-1.2 2.9-3.1 4.5-5.8zm0-10.9c-.7-2.8-1.7-5-3-6.7s-3.1-3-5.3-4-4.5-1.5-6.9-1.5c-4 0-7.4 1.3-10.3 3.8-2.1 1.9-3.7 4.7-4.8 8.4z" fill="#fff"></path><path d="m156.5 362.1h5.6v20.6l22-20.6h7.4l-26.5 24.6 28.4 30.3h-7.3l-24.1-25.6v25.6h-5.6v-54.9z" fill="#fff"></path><path d="m200.8 376.4h5.2v7.3c2.1-2.8 4.4-4.9 6.9-6.3s5.3-2.1 8.3-2.1 5.7.8 8.1 2.3 4.1 3.6 5.2 6.2 1.7 6.7 1.7 12.2v21h-5.2v-19.4c0-4.7-.2-7.8-.6-9.4-.6-2.7-1.8-4.7-3.5-6.1s-4-2-6.7-2c-3.2 0-6 1-8.5 3.1s-4.2 4.7-5 7.8c-.5 2-.7 5.7-.7 11.1v14.9h-5.2z" fill="#fff"></path><path d="m266.7 375.3c6.3 0 11.5 2.3 15.6 6.8 3.7 4.1 5.6 9 5.6 14.7s-2 10.6-5.9 14.9c-4 4.2-9 6.4-15.3 6.4-6.2 0-11.3-2.1-15.3-6.4-4-4.2-5.9-9.2-5.9-14.9 0-5.6 1.9-10.5 5.6-14.6 4.1-4.6 9.3-6.9 15.6-6.9zm0 5.1c-4.3 0-8.1 1.6-11.2 4.8s-4.7 7.1-4.7 11.7c0 2.9.7 5.7 2.1 8.2s3.3 4.5 5.8 5.9c2.4 1.4 5.1 2.1 8 2.1s5.6-.7 8-2.1 4.3-3.3 5.8-5.9c1.4-2.5 2.1-5.3 2.1-8.2 0-4.6-1.6-8.4-4.7-11.7-3.1-3.1-6.9-4.8-11.2-4.8z" fill="#fff"></path><path d="m292.9 376.4h6.3l10.8 14.9 10.7-14.9h6.3l-13.8 19.2 15.6 21.4h-6.4l-12.4-17.1-12.3 17.1h-6.2l15.4-21.4z" fill="#fff"></path><path d="m350.7 406.8 4.7-2.8c3.3 6.1 7.1 9.1 11.4 9.1 1.8 0 3.6-.4 5.2-1.3s2.9-2 3.7-3.5c.8-1.4 1.3-3 1.3-4.6 0-1.8-.6-3.6-1.9-5.4-1.7-2.4-4.9-5.4-9.4-8.8-4.6-3.5-7.4-6-8.6-7.5-1.9-2.6-2.9-5.4-2.9-8.4 0-2.4.6-4.6 1.7-6.5 1.1-2 2.8-3.5 4.8-4.7 2.1-1.1 4.3-1.7 6.8-1.7 2.6 0 5 .6 7.3 1.9s4.6 3.6 7.2 7.1l-4.5 3.4c-2.1-2.7-3.8-4.5-5.3-5.4s-3-1.3-4.8-1.3c-2.2 0-4 .7-5.4 2s-2.1 3-2.1 5c0 1.2.2 2.4.7 3.5s1.4 2.3 2.7 3.7c.7.7 3.1 2.5 7.1 5.5 4.8 3.5 8 6.6 9.8 9.4 1.8 2.7 2.7 5.5 2.7 8.3 0 4-1.5 7.4-4.5 10.4-3 2.9-6.7 4.4-11 4.4-3.3 0-6.4-.9-9.1-2.7-2.8-2-5.3-4.9-7.6-9.1z" fill="#fff"></path><path d="m433 384.8-4.1 2.6c-3.6-4.8-8.5-7.1-14.7-7.1-5 0-9.1 1.6-12.3 4.8-3.3 3.2-4.9 7.1-4.9 11.6 0 3 .8 5.7 2.3 8.4 1.5 2.6 3.6 4.6 6.2 6.1 2.6 1.4 5.6 2.2 8.8 2.2 6 0 10.8-2.4 14.6-7.1l4.1 2.7c-1.9 2.9-4.6 5.2-7.8 6.8-3.3 1.6-7 2.4-11.2 2.4-6.4 0-11.8-2-16-6.1s-6.4-9.1-6.4-14.9c0-3.9 1-7.6 3-11s4.7-6 8.2-7.9 7.3-2.8 11.6-2.8c2.7 0 5.3.4 7.8 1.2s4.6 1.9 6.4 3.2c1.7 1.2 3.2 2.9 4.4 4.9z" fill="#fff"></path><path d="m443.1 360.7h5.2v23c2.1-2.8 4.4-4.9 7-6.3 2.5-1.4 5.3-2.1 8.3-2.1s5.7.8 8.1 2.3 4.1 3.6 5.2 6.2 1.7 6.7 1.7 12.2v21h-5.2v-19.4c0-4.7-.2-7.8-.6-9.4-.6-2.7-1.8-4.7-3.5-6.1s-3.9-2-6.7-2c-3.2 0-6 1-8.5 3.1s-4.2 4.7-5 7.8c-.5 2-.7 5.7-.7 11.1v14.9h-5.2v-56.3z" fill="#fff"></path><path d="m509 375.3c6.3 0 11.5 2.3 15.6 6.8 3.7 4.1 5.6 9 5.6 14.7s-2 10.6-5.9 14.9c-4 4.2-9 6.4-15.3 6.4-6.2 0-11.3-2.1-15.3-6.4-4-4.2-5.9-9.2-5.9-14.9 0-5.6 1.9-10.5 5.6-14.6 4.1-4.6 9.3-6.9 15.6-6.9zm0 5.1c-4.3 0-8.1 1.6-11.2 4.8s-4.7 7.1-4.7 11.7c0 2.9.7 5.7 2.1 8.2s3.3 4.5 5.8 5.9c2.4 1.4 5.1 2.1 8 2.1s5.6-.7 8-2.1 4.3-3.3 5.8-5.9c1.4-2.5 2.1-5.3 2.1-8.2 0-4.6-1.6-8.4-4.7-11.7-3.2-3.1-6.9-4.8-11.2-4.8z" fill="#fff"></path><path d="m559.1 375.3c6.3 0 11.5 2.3 15.6 6.8 3.7 4.1 5.6 9 5.6 14.7s-2 10.6-5.9 14.9c-4 4.2-9 6.4-15.3 6.4-6.2 0-11.3-2.1-15.3-6.4-4-4.2-5.9-9.2-5.9-14.9 0-5.6 1.9-10.5 5.6-14.6 4.1-4.6 9.3-6.9 15.6-6.9zm0 5.1c-4.3 0-8.1 1.6-11.2 4.8s-4.7 7.1-4.7 11.7c0 2.9.7 5.7 2.1 8.2s3.3 4.5 5.8 5.9c2.4 1.4 5.1 2.1 8 2.1s5.6-.7 8-2.1 4.3-3.3 5.8-5.9c1.4-2.5 2.1-5.3 2.1-8.2 0-4.6-1.6-8.4-4.7-11.7-3.2-3.1-6.9-4.8-11.2-4.8z" fill="#fff"></path><path d="m589.2 360.7h5.2v56.3h-5.2z" fill="#fff"></path><path d="m.2 431.4h594.8" fill="none" stroke="#eeb310" stroke-width="2.7075"></path><path d="m104.7 450.5-2.6 2.5c-1.8-1.9-3.8-2.8-6-2.8-1.9 0-3.5.6-4.7 1.9s-1.9 2.9-1.9 4.7c0 1.3.3 2.5.9 3.5s1.4 1.8 2.4 2.4 2.2.9 3.5.9c1.1 0 2.1-.2 3-.6s1.9-1.1 3-2.2l2.5 2.6c-1.5 1.4-2.8 2.4-4.1 2.9s-2.8.8-4.4.8c-3.1 0-5.6-1-7.5-2.9s-2.9-4.4-2.9-7.4c0-2 .4-3.7 1.3-5.2s2.2-2.7 3.8-3.7c1.7-.9 3.4-1.4 5.3-1.4 1.6 0 3.2.3 4.7 1 1.3.8 2.6 1.7 3.7 3z" fill="#fff"></path><path d="m117.2 446.6c2.8 0 5.2 1 7.2 3s3 4.5 3 7.4-1 5.3-3 7.3-4.4 3-7.2 3c-2.9 0-5.4-1-7.3-3.1-2-2-2.9-4.5-2.9-7.3 0-1.9.5-3.6 1.4-5.2s2.2-2.8 3.7-3.7c1.6-1 3.3-1.4 5.1-1.4zm0 3.6c-1.8 0-3.3.6-4.6 1.9-1.2 1.3-1.9 2.9-1.9 4.8 0 2.2.8 3.9 2.3 5.2 1.2 1 2.6 1.5 4.2 1.5 1.8 0 3.3-.6 4.5-1.9s1.9-2.9 1.9-4.7c0-1.9-.6-3.5-1.9-4.7-1.2-1.4-2.7-2.1-4.5-2.1z" fill="#fff"></path><path d="m131 455.2h6.8v3.4h-6.8z" fill="#fff"></path><path d="m142.4 447h10.7v3.7h-7v3.6h7v3.6h-7v5.2h7v3.7h-10.7z" fill="#fff"></path><path d="m156.6 447h4.4c2.9 0 5 .4 6.4 1.1s2.5 1.9 3.4 3.5 1.3 3.5 1.3 5.6c0 1.5-.3 2.9-.8 4.2s-1.2 2.3-2.1 3.2c-.9.8-1.8 1.4-2.9 1.7-1 .3-2.8.5-5.4.5h-4.5v-19.8zm3.7 3.7v12.3h1.7c1.7 0 2.9-.2 3.7-.6s1.4-1.1 1.9-2 .7-2.1.7-3.4c0-2.1-.6-3.7-1.7-4.9-1.1-1-2.7-1.6-5.1-1.6h-1.2z" fill="#fff"></path><path d="m175.6 446.8h3.8v12.7c0 1.1.1 1.9.3 2.3.2.5.5.8.9 1.1s1 .4 1.6.4c.7 0 1.2-.2 1.7-.5s.8-.7 1-1.2.3-1.4.3-2.7v-12.2h3.8v11.7c0 2-.1 3.3-.3 4.1s-.6 1.5-1.3 2.2c-.6.7-1.4 1.2-2.2 1.6-.8.3-1.8.5-2.9.5-1.4 0-2.7-.3-3.7-1-1.1-.7-1.8-1.5-2.3-2.5s-.7-2.6-.7-5z" fill="#fff"></path><path d="m211.3 450.5-2.6 2.5c-1.8-1.9-3.8-2.8-6-2.8-1.9 0-3.5.6-4.7 1.9s-1.9 2.9-1.9 4.7c0 1.3.3 2.5.9 3.5s1.4 1.8 2.4 2.4 2.2.9 3.5.9c1.1 0 2.1-.2 3-.6s1.9-1.1 3-2.2l2.5 2.6c-1.5 1.4-2.8 2.4-4.1 2.9s-2.8.8-4.4.8c-3.1 0-5.6-1-7.5-2.9s-2.9-4.4-2.9-7.4c0-2 .4-3.7 1.3-5.2s2.2-2.7 3.8-3.7c1.7-.9 3.4-1.4 5.3-1.4 1.6 0 3.2.3 4.7 1 1.3.8 2.6 1.7 3.7 3z" fill="#fff"></path><path d="m220.6 447h3.8l7.6 19.6h-4l-1.5-4h-8l-1.6 4h-3.9zm1.9 5.3-2.6 6.7h5.3z" fill="#fff"></path><path d="m232.9 447h10.9v3.7h-3.6v16h-3.8v-16h-3.5z" fill="#fff"></path><path d="m246 447h3.7v19.6h-3.7z" fill="#fff"></path><path d="m263.2 446.6c2.8 0 5.2 1 7.2 3s3 4.5 3 7.4-1 5.3-3 7.3-4.4 3-7.2 3c-2.9 0-5.4-1-7.3-3.1-2-2-2.9-4.5-2.9-7.3 0-1.9.5-3.6 1.4-5.2s2.2-2.8 3.7-3.7c1.6-1 3.3-1.4 5.1-1.4zm0 3.6c-1.8 0-3.3.6-4.6 1.9-1.2 1.3-1.9 2.9-1.9 4.8 0 2.2.8 3.9 2.3 5.2 1.2 1 2.6 1.5 4.2 1.5 1.8 0 3.3-.6 4.5-1.9s1.9-2.9 1.9-4.7c0-1.9-.6-3.5-1.9-4.7-1.2-1.4-2.7-2.1-4.5-2.1z" fill="#fff"></path><path d="m276.9 447h3.6l8.4 12.9v-12.9h3.7v19.6h-3.6l-8.4-12.9v12.9h-3.7z" fill="#fff"></path><path d="m303.1 447h3.8l7.6 19.6h-3.9l-1.5-4h-8l-1.6 4h-3.9zm2 5.3-2.6 6.7h5.3z" fill="#fff"></path><path d="m317.4 447h3.7v16.1h5.4v3.6h-9.2v-19.7z" fill="#fff"></path><path d="m343.3 444.1h2.1v25.5h-2.1z" fill="#fff"></path><path d="m361.1 447h10.7v3.7h-7v3.6h7v3.6h-7v5.2h7v3.7h-10.7z" fill="#fff"></path><path d="m375.3 447h3.7v16.1h5.4v3.6h-9.2v-19.7z" fill="#fff"></path><path d="m405.4 450.5-2.6 2.5c-1.8-1.9-3.8-2.8-6-2.8-1.9 0-3.5.6-4.7 1.9s-1.9 2.9-1.9 4.7c0 1.3.3 2.5.9 3.5s1.4 1.8 2.4 2.4 2.2.9 3.5.9c1.1 0 2.1-.2 3-.6s1.9-1.1 3-2.2l2.5 2.6c-1.5 1.4-2.8 2.4-4.1 2.9s-2.8.8-4.4.8c-3.1 0-5.6-1-7.5-2.9s-2.9-4.4-2.9-7.4c0-2 .4-3.7 1.3-5.2s2.2-2.7 3.8-3.7c1.7-.9 3.4-1.4 5.3-1.4 1.6 0 3.2.3 4.7 1 1.4.8 2.6 1.7 3.7 3z" fill="#fff"></path><path d="m414.4 447h10.9v3.7h-3.6v16h-3.8v-16h-3.5z" fill="#fff"></path><path d="m437.1 446.6c2.8 0 5.2 1 7.2 3s3 4.5 3 7.4-1 5.3-3 7.3-4.4 3-7.2 3c-2.9 0-5.4-1-7.3-3.1-2-2-2.9-4.5-2.9-7.3 0-1.9.5-3.6 1.4-5.2s2.2-2.8 3.7-3.7c1.6-1 3.3-1.4 5.1-1.4zm0 3.6c-1.8 0-3.3.6-4.6 1.9-1.2 1.3-1.9 2.9-1.9 4.8 0 2.2.8 3.9 2.3 5.2 1.2 1 2.6 1.5 4.2 1.5 1.8 0 3.3-.6 4.5-1.9s1.9-2.9 1.9-4.7c0-1.9-.6-3.5-1.9-4.7-1.2-1.4-2.7-2.1-4.5-2.1z" fill="#fff"></path><path d="m457 447h3.8l4.9 14 5-14h3.8l-7.1 19.6h-3.6z" fill="#fff"></path><path d="m495.7 450.5-2.7 2.5c-1.8-1.9-3.8-2.8-6-2.8-1.9 0-3.5.6-4.7 1.9s-1.9 2.9-1.9 4.7c0 1.3.3 2.5.9 3.5s1.4 1.8 2.4 2.4 2.2.9 3.5.9c1.1 0 2.1-.2 3-.6s1.9-1.1 3-2.2l2.5 2.6c-1.5 1.4-2.8 2.4-4.1 2.9s-2.8.8-4.4.8c-3.1 0-5.6-1-7.5-2.9s-2.9-4.4-2.9-7.4c0-2 .4-3.7 1.3-5.2s2.2-2.7 3.8-3.7c1.7-.9 3.4-1.4 5.3-1.4 1.6 0 3.2.3 4.7 1 1.4.8 2.7 1.7 3.8 3z" fill="#fff"></path><path d="m498.9 447h10.7v3.7h-7v3.6h7v3.6h-7v5.2h7v3.7h-10.7z" fill="#fff"></path><path d="m373.9 266.2 4.4 10.9s-.8 2.9-9.1 3.4c-8.2.4-7.1 5.2-7.1 5.2s-3.6-13.6-13.6-7.3c-8.7 5.5-16.3 7.6-19.1 5-2.9-2.6 4.9-15.3 31.3-18.8s3.1-9 3.1-9-5-1.2-5-3.6c-.1-2.4 6-5.6 19-3.4 13.3 2.3 28.4 16.5 40.4 14.2 0 0-2.3 3.6-16.2 2.8 0 0 5.5 5.8 15.3 5.8 0 0-6.9 6.6-21.3-.6-14.6-7.1-22.1-4.6-22.1-4.6z" fill="#0058a9"></path><path d="m358.7 252c.1 2.4 5 3.6 5 3.6s23.3 5.5-3.1 9c-.7.1-1.3.2-1.9.3v-12.9c0-.1 0-.1 0 0z" fill="#febe10"></path><path d="m221.4 266.2-4.4 10.9s.8 2.9 9.1 3.4c8.2.4 7.1 5.2 7.1 5.2s3.6-13.6 13.6-7.3c8.7 5.5 16.3 7.6 19.1 5 2.9-2.6-4.9-15.3-31.3-18.8s-3.1-9-3.1-9 5-1.2 5-3.6c.1-2.4-6-5.6-19-3.4-13.3 2.3-28.4 16.5-40.4 14.2 0 0 2.3 3.6 16.2 2.8 0 0-5.5 5.8-15.3 5.8 0 0 6.9 6.6 21.3-.6 14.5-7.1 22.1-4.6 22.1-4.6z" fill="#0058a9"></path><path d="m236.6 252c-.1 2.4-5 3.6-5 3.6s-23.3 5.5 3.1 9c.7.1 1.3.2 1.9.3v-12.9c0-.1 0-.1 0 0z" fill="#febe10"></path><path d="m359.5 280.2-.1-.2c-2.1-3-5.7-5-10.9-1.7-8.6 5.4-16.1 7.6-19 5.1.7.8 2 1.9 4 3 4.6 2.6 10.3 9.8 10.9 10.5-12.6 10.5-28.9 16.7-46.6 16.7s-34-6.4-46.7-16.9c.4-.5 6.1-7.7 10.8-10.3 2-1.1 3.3-2.2 4-3-2.9 2.5-10.4.3-19-5.1-5.1-3.2-8.6-1.3-10.7 1.5-.2.3-.5.6-.7 1l-11.8 17c16.1 21.6 45 34.8 74 34.8 28.9 0 57.9-13.2 74-34.7z" fill="#febe10"></path><path d="m297.6 331.5c28.6 0 57.1-13.2 72.8-33.8l-11-16c-13.8 20.7-36.7 33-61.6 33s-47.9-12.4-61.7-33.2l-11.2 16.2c15.6 20.6 44 33.8 72.7 33.8z" fill="#0058a9"></path><path d="m236.4 300.3c-.5-.5-.9-1.2-1-2l1-.1c.1.6.2 1.1.7 1.4.3.3.6.4.8.2.2-.2.2-.4-.3-1.1-.5-.9-.8-1.5-.1-2.2.6-.6 1.5-.6 2.3.1.5.5.8 1.1.9 1.7l-1 .2c-.1-.5-.3-.9-.6-1.2s-.6-.3-.8-.1c-.2.2-.1.5.3 1.2.5.9.7 1.5.1 2.1-.7.7-1.6.5-2.3-.2z" fill="#fff"></path><path d="m238.5 302.2 3.2-3.7 2.8 2.4-.6.7-2-1.7-.7.8 1.7 1.5-.6.7-1.7-1.5-.7.8 2 1.7-.6.7z" fill="#fff"></path><path d="m242.2 305.4 3-3.9 2.9 2.3-.6.8-2.1-1.6-.6.8 1.8 1.4-.6.8-1.8-1.4-.6.8 2.1 1.6-.6.8z" fill="#fff"></path><path d="m248.6 310.2v-2.6l-.8.2-.9 1.2-.9-.6 2.8-4 .9.6-1.2 1.8 2.9-.6 1.1.8-2.8.6.1 3.5z" fill="#fff"></path><path d="m256.2 314.9-.8-.5.7-3.3-2.6 2.2-.8-.5 1.1-5.1 1 .6-.8 3.4 2.6-2.3.8.5-.7 3.4 2.6-2.4 1 .6z" fill="#fff"></path><path d="m258.6 316.2 2.2-4.4 1 .5-2.2 4.4z" fill="#fff"></path><path d="m262.3 318.1c-.7-.3-1.2-.9-1.6-1.6l.9-.4c.2.5.6.9 1.1 1.2.4.2.7.1.8-.1.1-.2 0-.4-.6-1-.8-.6-1.3-1.2-.8-2 .4-.8 1.3-1 2.2-.6.7.3 1.1.8 1.4 1.3l-.9.5c-.3-.5-.6-.8-1-1s-.7-.1-.8.1c-.1.3 0 .5.7 1 .8.7 1.2 1.2.8 2-.3.8-1.3 1-2.2.6z" fill="#fff"></path><path d="m266.7 319.9-1.8-.7 1.8-4.6 1.8.7c1.4.6 2 1.9 1.5 3.2-.4 1.3-1.8 2-3.3 1.4zm2.3-1.8c.3-.8 0-1.6-.8-1.9l-.8-.3-1.1 2.8.8.3c.8.3 1.6 0 1.9-.9z" fill="#fff"></path><path d="m272.5 322c-1.4-.5-2.1-1.9-1.7-3.2.4-1.3 1.8-2.1 3.3-1.6s2.1 1.9 1.7 3.2c-.5 1.4-1.9 2.1-3.3 1.6zm2.2-1.9c.3-.8-.1-1.7-.9-1.9-.8-.3-1.6.2-1.9 1-.3.8.1 1.7.9 1.9.8.3 1.6-.2 1.9-1z" fill="#fff"></path><path d="m279.9 324 .7-3.1-1.8 1.7-.8-2.3-.7 3.1-1-.2 1.1-4.8 1.1.3.8 2.3 1.7-1.7 1.1.3-1.1 4.8z" fill="#fff"></path><path d="m287.8 325.4-.3-1.2-2.1-.3-.6 1-1.1-.2 2.8-4.6 1 .1 1.4 5.2zm-.9-3.8-.9 1.4 1.3.2z" fill="#fff"></path><path d="m293.3 325.9-2.1-3.3-.2 3.1-1.1-.1.4-4.9 1 .1 2.1 3.2.2-3 1.1.1-.4 4.9z" fill="#fff"></path><path d="m297.5 326h-1.9l.1-4.9h1.9c1.5 0 2.6 1.1 2.6 2.5-.1 1.4-1.1 2.4-2.7 2.4zm1.5-2.4c0-.9-.6-1.5-1.5-1.5h-.8v3h.8c.9 0 1.5-.6 1.5-1.5z" fill="#fff"></path><path d="m304.8 325.9c-1.3.1-2.2-.6-2.3-2l-.2-2.8 1.1-.1.2 2.8c.1.8.5 1.2 1.1 1.1.7-.1 1-.5 1-1.3l-.2-2.8 1.1-.1.2 2.8c.1 1.5-.7 2.3-2 2.4z" fill="#fff"></path><path d="m311.6 325-2.8-2.7.5 3.1-1.1.2-.7-4.9 1-.1 2.7 2.7-.4-3 1.1-.2.7 4.9z" fill="#fff"></path><path d="m315.7 324.2-1.9.4-1-4.8 1.9-.4c1.5-.3 2.8.5 3.1 1.8.3 1.4-.5 2.7-2.1 3zm1-2.7c-.2-.8-.9-1.3-1.8-1.1l-.8.2.6 2.9.8-.2c.9-.2 1.4-1 1.2-1.8z" fill="#fff"></path><path d="m319.4 323.4-1.3-4.7 3.6-1 .3.9-2.5.7.3 1 2.2-.6.3.9-2.2.6.3 1 2.6-.7.3.9z" fill="#fff"></path><path d="m326.9 321-1.5-1.1-.8.3.5 1.5-1 .4-1.6-4.6 2.1-.7c1.1-.4 2 0 2.3.9.3.8 0 1.4-.5 1.8l1.7 1.3zm-1-3c-.2-.4-.5-.6-1-.4l-1 .3.5 1.3 1-.4c.4-.1.6-.4.5-.8z" fill="#fff"></path><path d="m330.6 319.7c-.7.3-1.5.3-2.2.1l.3-.9c.5.2 1.1.2 1.6 0 .4-.2.6-.4.5-.7-.1-.3-.3-.3-1.2-.2-1 .1-1.7.1-2.1-.8-.3-.8.1-1.6 1-2 .7-.3 1.3-.3 1.9-.1l-.2 1c-.5-.1-1-.1-1.4 0-.4.2-.5.4-.4.6.1.3.4.3 1.2.2 1-.1 1.7 0 2 .8.5.8 0 1.6-1 2z" fill="#fff"></path><path d="m333.5 314.1 1.6 3.6-1 .5-1.6-3.6-1.4.6-.4-.9 3.7-1.7.4.9z" fill="#fff"></path><path d="m340.1 315.1-.9-.8-1.8 1 .1 1.2-1 .5-.4-5.4.9-.5 4.2 3.4zm-3-2.5.2 1.7 1.2-.6z" fill="#fff"></path><path d="m344.8 312.3-3.7-1.4 1.6 2.7-.9.6-2.6-4.2.9-.5 3.5 1.4-1.6-2.6.9-.6 2.6 4.2z" fill="#fff"></path><path d="m348.3 310-1.6 1.1-2.8-4 1.6-1.1c1.3-.9 2.7-.6 3.5.5.8 1.2.5 2.6-.7 3.5zm-.2-2.8c-.5-.7-1.3-.9-2.1-.4l-.7.5 1.7 2.4.7-.5c.7-.5.9-1.3.4-2z" fill="#fff"></path><path d="m351.3 307.8-3-3.9.9-.7 3 3.9z" fill="#fff"></path><path d="m355.9 304.2-3.8-.9 2 2.4-.8.7-3.1-3.8.8-.6 3.7.9-1.9-2.3.8-.7 3.1 3.8z" fill="#fff"></path><path d="m359.4 301.2c-1.1 1-2.6 1-3.6-.1-.9-1-.9-2.6.2-3.6.7-.6 1.2-.8 1.9-.8l.1 1.1c-.5 0-.9.1-1.3.5-.6.5-.6 1.5 0 2.1.6.7 1.5.7 2.2.1.3-.3.5-.6.5-.9l-.5-.5-.8.7-.6-.7 1.6-1.4 1.4 1.6c-.1.6-.4 1.3-1.1 1.9z" fill="#fff"></path><path d="m358.4 206.1c0-.3 0-.6 0-.9 0-.8 0-1.5 0-2.3v-.5s0 0 0-.1v-14.2-4.4-14.7-4.3h-4.4-55.8-1-55.8-4.4v4.4 33.7c0 19.7 4.3 39 12.6 56 .1.3.3.6.4.9.3.5.5 1 .8 1.5.3.7.7 1.3 1 2 0 .1.1.1.1.2l.3.6c.5.9 1 1.9 1.6 2.8.1.1.1.2.2.4.6 1.1 1.2 2.1 1.9 3.1 4.1 6.6 9 12.8 14.5 18.5 0 0 .1.1.1.1.8.8 1.6 1.7 2.5 2.5l.5.5c.7.7 1.4 1.3 2.1 2 .3.3.7.6 1 .9.6.5 1.1 1 1.7 1.5.5.4 1 .8 1.5 1.2.4.4.9.7 1.3 1.1.6.5 1.3 1 1.9 1.5.4.3.7.6 1.1.8l2.1 1.5c.4.3.8.6 1.2.8.6.4 1.2.9 1.9 1.3.3.2.5.3.7.5 1.7 1.1 3.4 2.1 5.1 3.1l.5.3 2.2 1.3 2.2-1.3.4-.3c1.7-1 3.4-2 5.1-3.1.2-.1.4-.3.6-.4 6.3-4.1 12.1-8.9 17.4-14.1.3-.3.6-.6.9-.9.4-.4.7-.7 1.1-1.1 15.4-16 25.1-35.4 29.7-56.1 1.9-8.5 2.9-17.2 3.2-26.3z" fill="#febe10"></path><path d="m298.2 304.3-.5.3-.5-.3c-2.5-1.4-4.9-3-7.2-4.6 0-1.9 0-3.6 0-3.6v-108-4.3h-4.3-44.2v-14.7h55.8 1 55.7v14.7h-44.2-4.4v4.4 107.9 3.6c-2.3 1.6-4.7 3.2-7.2 4.6z" fill="#910028"></path><path d="m285.7 296.6c-.1-.1-.2-.1-.2-.2-1.6-1.3-3.2-2.6-4.8-3.9-.1-.1-.3-.3-.4-.4-13.3-11.7-23.5-26.4-30-42.9-.1-.1-.1-.3-.2-.4-.8-1.9-1.5-3.9-2.1-5.8-.1-.3-.2-.5-.3-.8-.6-1.9-1.2-3.8-1.7-5.7-.1-.3-.2-.6-.2-.9-.5-1.8-.9-3.7-1.3-5.5-.1-.3-.1-.6-.2-.9-.4-1.7-.7-3.5-1-5.3-.1-.5-.2-1-.2-1.5-.3-1.8-.5-3.6-.7-5.3-.1-.6-.1-1.2-.2-1.7-.2-1.8-.3-3.6-.4-5.4 0-.5 0-1-.1-1.5-.1-2-.1-4-.1-6v-14.2h44.2v108.3z" fill="#006f45"></path><path d="m353.9 208c0 .7-.1 1.5-.1 2.2-.1 1.6-.2 3.1-.3 4.6-.1.9-.2 1.8-.3 2.6-.2 1.3-.3 2.7-.5 4-.1.9-.3 1.9-.4 2.8-.2 1.3-.5 2.7-.7 4-.1.6-.3 1.3-.4 1.9-.4 1.7-.8 3.4-1.2 5.1-.1.4-.2.7-.3 1.1-.5 2-1.1 3.9-1.7 5.8-.1.2-.1.3-.2.5-5.6 16.8-14.9 32.2-27.4 44.7-.1.1-.3.3-.4.4-1.4 1.4-2.9 2.7-4.4 4.1-.2.2-.5.4-.7.6-1.5 1.3-3.1 2.6-4.7 3.8-.1.1-.2.1-.2.2v-108.4h44v14.2c.1 2 0 3.9-.1 5.8z" fill="#0058a9"></path><g fill="#fff"><circle cx="262.1" cy="198.1" r=".8"></circle><path d="m264.8 231.1c-9.9-10.6-6.1-22.4-5.1-24.9 1 0 1.9-.7 2.1-1.7v-.2c.3-1.5 1-2.8 2.1-3.8l-2.4-.9-2.4-.9c.1 1.5-.3 3-1.1 4.2l-.1.2c-.6.9-.4 2 .3 2.6-1 2.7-5 15.5 5.4 26.5 10.4 11.1 7 29.3 7 29.5-.1.4.2.9.6.9h.2c.4 0 .7-.3.8-.6.1-.8 3.6-19.2-7.4-30.9z"></path><circle cx="268.3" cy="208.6" r=".8"></circle><path d="m263.7 212.7c1.2-.8 2.7-1.3 4.2-1.2l-1-2.4-1-2.4c-1 1.1-2.3 1.9-3.8 2.2l-.2.1c-1.3.3-2 1.7-1.5 2.9s2 1.7 3.1.9z"></path><circle cx="268.8" cy="217.2" r=".8"></circle><path d="m264.6 221.7c1.1-1 2.5-1.5 4-1.6l-1.3-2.2-1.3-2.2c-.9 1.2-2.1 2.1-3.5 2.6l-.2.1c-1.3.4-1.8 1.9-1.2 3 .6 1.2 2.2 1.4 3.2.6z"></path><circle cx="272.6" cy="224.1" r=".8"></circle><path d="m268.8 229c1.1-1 2.4-1.7 3.9-2l-1.4-2.1-1.4-2.1c-.8 1.3-1.9 2.3-3.3 2.9l-.2.1c-1.2.5-1.7 2-.9 3.1.7 1.1 2.3 1.3 3.3.3z"></path><circle cx="277.8" cy="231.4" r=".8"></circle><path d="m274.4 236.5c1-1.1 2.3-1.9 3.7-2.2l-1.6-2-1.6-2c-.7 1.3-1.8 2.4-3.1 3.1l-.2.1c-1.2.6-1.5 2.1-.7 3.2s2.4 1.1 3.3.1z"></path><circle cx="281.7" cy="240.3" r=".8"></circle><path d="m277.7 245c1.1-1 2.5-1.6 4-1.8l-1.3-2.2-1.3-2.2c-.8 1.2-2 2.2-3.4 2.7l-.2.1c-1.3.5-1.8 1.9-1.1 3.1s2.2 1.4 3.2.5z"></path><circle cx="259.4" cy="245.3" r=".8"></circle><path d="m265.1 242.8c-1.4.4-3 .4-4.4-.1l.2 2.6.2 2.6c1.3-.8 2.8-1.1 4.3-.9h.2c1.3.1 2.4-1 2.3-2.3s-1.4-2.2-2.7-1.8z"></path><circle cx="255.7" cy="236.1" r=".8"></circle><path d="m261.7 234.7c-1.5.2-3-.1-4.3-.9l-.2 2.6-.2 2.6c1.4-.5 2.9-.6 4.3-.2l.2.1c1.3.4 2.6-.5 2.7-1.9s-1-2.4-2.3-2.3z"></path><circle cx="250.3" cy="225.4" r=".8"></circle><path d="m256.4 226.4c-1.4-.4-2.7-1.3-3.6-2.5l-1.2 2.3-1.2 2.3c1.5.1 2.9.6 4.1 1.5l.2.1c1 .8 2.6.5 3.2-.7s0-2.6-1.3-3z"></path><circle cx="247.8" cy="214.8" r=".8"></circle><path d="m253.6 217.1c-1.3-.7-2.4-1.8-3-3.2l-1.6 2-1.6 2c1.4.4 2.7 1.2 3.7 2.3l.1.2c.8 1 2.4 1 3.3 0s.6-2.6-.6-3.2z"></path><circle cx="248.2" cy="204.4" r=".8"></circle><path d="m253.7 207c-1.3-.8-2.2-2-2.8-3.4l-1.8 1.9-1.8 1.9c1.4.5 2.6 1.4 3.5 2.6l.1.2c.8 1.1 2.3 1.2 3.3.2.9-1 .7-2.5-.4-3.2z"></path><path d="m329.3 196.3 3.8-.9-1.7 3.5 3 2.4-3.8.8v3.8l-3-2.4-3 2.4.1-3.9-3.8-.8 3.1-2.4-1.7-3.5 3.7 1 1.7-3.5z"></path><path d="m321.5 217.8 3.8-.9-1.7 3.4 3 2.4-3.8.8.1 3.9-3-2.5-3 2.5v-3.9l-3.8-.8 3.1-2.4-1.7-3.5 3.8.9 1.6-3.5z"></path><path d="m344.1 211.8 3.8-.9-1.7 3.5 3 2.4-3.8.8v3.9l-2.9-2.5-3.1 2.5.1-3.9-3.8-.9 3.1-2.3-1.7-3.5 3.8.9 1.6-3.5z"></path><path d="m329.6 252.1 3.8-.9-1.8 3.5 3.1 2.4-3.8.8v3.9l-3-2.5-3 2.4.1-3.8-3.8-.9 3.1-2.3-1.7-3.5 3.7.9 1.7-3.5z"></path><path d="m339.2 230.4 1.9-.5-.8 1.8 1.5 1.1-1.9.5v1.9l-1.5-1.2-1.5 1.2v-2l-1.9-.4 1.6-1.2-.9-1.7 1.9.5.8-1.8z"></path></g><path clip-rule="evenodd" d="m355.4 122.7 2.2-1.2-2-1.6c-2.2-1.7-4.8-2.8-7.6-3l-4.4-.4 3-.6c3.4-.7 6.5-2.3 8.9-4.7l1.1-1.1-1.5-.6c-3.1-1.3-6.6-1.7-10-1l-21.2 5.3c-2.5.6-5.1.8-7.6.4 0 0-.7-.4-1.9-1.2 8.6-1.8 15.3-4.7 17.9-8.5-8.1 2.4-14.1 0-14.1 0 11-2 18.3-4.8 22.3-11.9-7.9 4-14.5 3.2-14.5 3.2 14.3-4.2 25.7-11.7 25.4-27.5-5.8 11-15 14.3-15.6 14.4 14.7-12.6 17.5-31.7 13.2-39-2.1 15.2-14.1 24.9-14.7 25.5 11.3-18 13.3-31.7 5.7-44.8.6 24.2-11.7 30.8-11.7 30.8 8.8-17.9 11.6-31.3 1-42.9 1.2 8.6-.5 24.9-19.4 43.1-10.2 9.9-18.7 9.5-20.7 24.3-.9 6.9-3.1 11.8-5.7 15.4 0 0-.1 0-.1-.1-2.3.3-3.8-2.3-3.8-2.3 3.7-4.5 1.8-9.5 1.8-9.5-1.1 4.5-4.6 6-4.6 6 4-7.3.1-14.3.1-14.3-.5 7.1-3.5 10.5-3.5 10.5 3.5-17.6-2.4-20.8-2.4-20.8.9 11.2-2.3 16.8-2.3 16.8 3.2-25.3-6.9-27.7-6.9-27.7 3.1 13.8.4 20.6.4 20.6-1.3-33-15.7-29.4-15.7-29.4 8.3 11.9 5.7 18.5 5.7 18.5-11.8-28.9-29.9-15.4-29.9-15.4 16.1 5.2 18.7 18.1 18.7 18.1-22-25.3-41.6-6.1-41.6-6.1 46 .9 29.2 35 44.7 39.2 15.4 4.1 19.1 13.8 19.1 13.8s.4 4.1-2.1 7.9c-1.7 2.5-3.9 6.6-5.1 9.6-1 2-1.5 4.3-1.1 6.7.3 1.8 1 3.3 2 4.5.3 3.2 1.3 7.1 4.2 8.2-.6-.8-1-1.8-1.1-2.8-.1-.6-.1-1.2.1-1.8s.5-1.2 1-1.5c-.4 1.1-.4 2.1-.2 3.2 0 .3.1.7.2 1 1.2-.1 3.3-.8 4.2-3.6 3.9-1.1 6.6-4.9 6.9-9.1.6-.1 1.1-.1 1.8 0 4.4.8 7.8 2.9 9.3 3.9-.2 1.2-.4 2.4-.4 3.6 0 7.3 1.9 12.5 1.9 12.5l1.5-1.6c.6 2.4 1.3 7.3.1 8-2.4 1.7-3.3 2.4-4.6 3.6-2.1 1.9-2.5 2.8-2 5.3v.1c0 .2.1.3.1.5.3 1 1.3 1.6 2.2 1.3.3-.1.5-.2.7-.4-1.2-.1-1.6-.6-1.8-1.3v-.1c.5 0 .8-.1.9-.7.1-.8.9-4.6 5.7-5.4h7.4c-.2-.5-.6-1.1-1.3-1.6l-2.3-1.7-1.3-1-.5-6.5h.7c.3.3.6.6.9 1 1.1-2.9 1.5-6 1.3-9.2-.1-.9-.1-1.8-.1-2.7 1.2-.1 2.7-.5 4.3-1.2-1.5 11.3 4.8 17.2 4.8 17.2.2-.7.5-1.6.7-2.5.2-.3.4-.5.6-.8.4 2.4.6 5.5-.3 6.1-2.4 1.7-3.3 2.4-4.6 3.6-2.1 1.9-2.5 2.8-2 5.3v.1c0 .2.1.3.1.5.3 1 1.3 1.6 2.2 1.3.3-.1.5-.2.7-.4-1.2-.1-1.6-.6-1.8-1.3v-.1c.5 0 .8-.1.9-.7.1-.8.9-4.6 5.7-5.4h7.4c-.2-.5-.6-1.1-1.3-1.6l-2.3-1.7-1.3-1-.5-6.5c1.5 2.2 2.6 3.3 2.6 3.3 2.1-4.8 1.5-15.6 1.5-15.6s3.7-5.2 5.5-9l14.4 10.5c1.5 1.1 3.3 1.7 5.1 1.8l4 .2-1.4-3.8c-.6-1.7-1.8-3.2-3.2-4.3l3.2 1.9c1.9 1.1 4 1.6 6.1 1.4l3.5-.2-1.6-3.2c-.9-1.9-2.4-3.5-4.3-4.6l-1.9-1.1 4 1.2c3.5 1.1 7.3 1.1 10.9 0l1.1-.3-.7-.9c-2.3-2.9-5.5-4.9-9-6l-3.8-1.2 5.8.5c2.7.2 5.5-.4 7.9-1.7zm-92.4 14.3c-.3.7-1.2 1.1-2 .7 0 0-.5.9-.8 1.4-.3-1.5 1.6-5.4 2.4-5.8-.1.5-.4 1.8-.4 1.8.8.3 1.1 1.2.8 1.9z" fill="#0058a9" fill-rule="evenodd"></path></svg> 