<?xml version="1.0" encoding="UTF-8"?> <svg xmlns="http://www.w3.org/2000/svg" viewBox="0 0 1160.4 342.5"><path d="m242.7 97.7v-8.3h46.4v8.3h-18.9v76.5h-8.6v-76.5z" fill="#fff"></path><path d="m300 87.3h8.1v35.4c3.3-4.3 6.9-7.5 10.8-9.6s8.2-3.2 12.7-3.2c4.7 0 8.8 1.2 12.5 3.6 3.6 2.4 6.3 5.6 8 9.6s2.6 10.3 2.6 18.9v32.3h-8.1v-29.9c0-7.2-.3-12-.9-14.5-1-4.1-2.8-7.3-5.4-9.4s-6.1-3.1-10.3-3.1c-4.9 0-9.2 1.6-13.1 4.8s-6.4 7.2-7.6 12c-.8 3.1-1.2 8.8-1.2 17.1v23h-8.1z" fill="#fff"></path><path d="m424.8 153.3 6.8 3.6c-2.2 4.4-4.8 7.9-7.7 10.6s-6.2 4.7-9.9 6.1-7.8 2.1-12.4 2.1c-10.2 0-18.2-3.4-24-10.1s-8.6-14.3-8.6-22.7c0-8 2.4-15 7.3-21.3 6.2-7.9 14.5-11.9 24.9-11.9 10.7 0 19.2 4.1 25.6 12.2 4.5 5.7 6.8 12.9 6.9 21.4h-56.4c.2 7.3 2.5 13.2 7 17.9s10.1 7 16.7 7c3.2 0 6.3-.6 9.3-1.7s5.6-2.6 7.7-4.4c2-1.7 4.3-4.7 6.8-8.8zm0-16.8c-1.1-4.3-2.6-7.7-4.7-10.3s-4.8-4.6-8.2-6.2-6.9-2.4-10.7-2.4c-6.2 0-11.4 2-15.9 5.9-3.2 2.9-5.7 7.2-7.3 13z" fill="#fff"></path><path d="m482.7 89.4h8.6v31.8l33.9-31.8h11.4l-40.7 38 43.9 46.7h-11.3l-37.1-39.5v39.5h-8.6v-84.7z" fill="#fff"></path><path d="m551.1 111.5h8.1v11.2c3.2-4.3 6.8-7.5 10.7-9.6s8.2-3.2 12.8-3.2c4.7 0 8.8 1.2 12.5 3.6 3.6 2.4 6.3 5.6 8 9.6s2.6 10.3 2.6 18.8v32.3h-8.1v-29.9c0-7.2-.3-12-.9-14.5-.9-4.1-2.7-7.3-5.4-9.4s-6.1-3.1-10.4-3.1c-4.9 0-9.2 1.6-13.1 4.8s-6.4 7.2-7.6 12c-.8 3.1-1.2 8.8-1.2 17.1v23h-8.1v-62.7z" fill="#fff"></path><path d="m652.7 109.8c9.7 0 17.7 3.5 24 10.5 5.8 6.4 8.7 13.9 8.7 22.6 0 8.8-3 16.4-9.1 23-6.1 6.5-13.9 9.8-23.5 9.8s-17.5-3.3-23.6-9.8-9.1-14.2-9.1-23c0-8.7 2.9-16.2 8.7-22.6 6.2-6.9 14.2-10.5 23.9-10.5zm0 7.9c-6.7 0-12.5 2.5-17.3 7.4-4.8 5-7.2 10.9-7.2 18 0 4.5 1.1 8.8 3.3 12.7s5.2 6.9 8.9 9.1c3.7 2.1 7.8 3.2 12.3 3.2s8.6-1.1 12.3-3.2 6.7-5.2 8.9-9.1 3.3-8.1 3.3-12.7c0-7-2.4-13-7.3-18-4.8-4.9-10.6-7.4-17.2-7.4z" fill="#fff"></path><path d="m693.1 111.5h9.7l16.7 22.9 16.5-22.9h9.7l-21.3 29.6 24 33.1h-9.8l-19.1-26.3-19 26.3h-9.6l23.8-33z" fill="#fff"></path><path d="m782.1 158.4 7.2-4.3c5.1 9.3 10.9 14 17.6 14 2.8 0 5.5-.7 8-2s4.4-3.1 5.7-5.3 2-4.6 2-7.1c0-2.8-1-5.6-2.9-8.4-2.7-3.8-7.5-8.3-14.5-13.6-7.1-5.3-11.5-9.2-13.2-11.6-3-4-4.5-8.3-4.5-13 0-3.7.9-7 2.7-10.1 1.8-3 4.3-5.4 7.5-7.2s6.7-2.6 10.5-2.6c4 0 7.7 1 11.2 3s7.2 5.6 11 10.9l-6.9 5.2c-3.2-4.2-5.9-7-8.2-8.4-2.2-1.3-4.7-2-7.3-2-3.4 0-6.2 1-8.4 3.1s-3.3 4.6-3.3 7.7c0 1.8.4 3.6 1.2 5.4.8 1.7 2.2 3.6 4.2 5.6 1.1 1.1 4.8 3.9 10.9 8.5 7.3 5.4 12.4 10.2 15.1 14.5 2.7 4.2 4.1 8.5 4.1 12.7 0 6.1-2.3 11.5-7 16s-10.3 6.8-17 6.8c-5.1 0-9.8-1.4-14-4.1-4.3-2.7-8.1-7.3-11.7-13.7z" fill="#fff"></path><path d="m909.2 124.5-6.4 4c-5.5-7.3-13.1-11-22.6-11-7.6 0-14 2.5-19 7.4s-7.6 10.9-7.6 17.9c0 4.6 1.2 8.9 3.5 12.9s5.5 7.2 9.6 9.4c4 2.2 8.6 3.3 13.6 3.3 9.2 0 16.7-3.7 22.6-11l6.4 4.2c-3 4.5-7 8-12.1 10.5-5 2.5-10.8 3.7-17.3 3.7-9.9 0-18.1-3.1-24.7-9.4-6.5-6.3-9.8-14-9.8-23 0-6.1 1.5-11.7 4.6-16.9s7.2-9.3 12.6-12.2c5.3-2.9 11.3-4.4 17.9-4.4 4.1 0 8.2.6 12 1.9 3.9 1.3 7.1 2.9 9.8 5 2.7 1.9 5 4.5 6.9 7.7z" fill="#fff"></path><path d="m924.7 87.3h8.1v35.4c3.3-4.3 6.9-7.5 10.8-9.6s8.2-3.2 12.7-3.2c4.7 0 8.8 1.2 12.5 3.6 3.6 2.4 6.3 5.6 8 9.6s2.6 10.3 2.6 18.9v32.3h-8.1v-29.9c0-7.2-.3-12-.9-14.5-1-4.1-2.8-7.3-5.4-9.4s-6.1-3.1-10.3-3.1c-4.9 0-9.2 1.6-13.1 4.8s-6.4 7.2-7.6 12c-.8 3.1-1.2 8.8-1.2 17.1v23h-8.1z" fill="#fff"></path><path d="m1026.3 109.8c9.7 0 17.7 3.5 24 10.5 5.8 6.4 8.7 13.9 8.7 22.6 0 8.8-3 16.4-9.1 23-6.1 6.5-13.9 9.8-23.5 9.8s-17.5-3.3-23.6-9.8-9.1-14.2-9.1-23c0-8.7 2.9-16.2 8.7-22.6 6.2-6.9 14.2-10.5 23.9-10.5zm0 7.9c-6.7 0-12.5 2.5-17.3 7.4-4.8 5-7.2 10.9-7.2 18 0 4.5 1.1 8.8 3.3 12.7s5.2 6.9 8.9 9.1c3.7 2.1 7.8 3.2 12.3 3.2s8.6-1.1 12.3-3.2 6.7-5.2 8.9-9.1 3.3-8.1 3.3-12.7c0-7-2.4-13-7.3-18-4.8-4.9-10.5-7.4-17.2-7.4z" fill="#fff"></path><path d="m1103.6 109.8c9.7 0 17.7 3.5 24 10.5 5.8 6.4 8.7 13.9 8.7 22.6 0 8.8-3 16.4-9.1 23-6.1 6.5-13.9 9.8-23.5 9.8s-17.5-3.3-23.6-9.8-9.1-14.2-9.1-23c0-8.7 2.9-16.2 8.7-22.6 6.2-6.9 14.2-10.5 23.9-10.5zm-.1 7.9c-6.7 0-12.5 2.5-17.3 7.4-4.8 5-7.2 10.9-7.2 18 0 4.5 1.1 8.8 3.3 12.7s5.2 6.9 8.9 9.1c3.7 2.1 7.8 3.2 12.3 3.2s8.6-1.1 12.3-3.2 6.7-5.2 8.9-9.1 3.3-8.1 3.3-12.7c0-7-2.4-13-7.3-18-4.7-4.9-10.5-7.4-17.2-7.4z" fill="#fff"></path><path d="m1150 87.3h8.1v86.9h-8.1z" fill="#fff"></path><path d="m241.7 196.3h917.3" fill="none" stroke="#eeb310" stroke-width="2.7075"></path><path d="m402.8 225.8-4 3.8c-2.7-2.9-5.8-4.3-9.3-4.3-2.9 0-5.3 1-7.3 3s-3 4.4-3 7.3c0 2 .4 3.8 1.3 5.4s2.1 2.8 3.7 3.7 3.4 1.3 5.3 1.3c1.7 0 3.2-.3 4.6-.9s2.9-1.8 4.6-3.4l3.9 4.1c-2.2 2.2-4.4 3.7-6.3 4.5-2 .8-4.3 1.3-6.8 1.3-4.7 0-8.6-1.5-11.6-4.5s-4.5-6.8-4.5-11.5c0-3 .7-5.7 2-8.1 1.4-2.3 3.3-4.2 5.9-5.7 2.5-1.4 5.3-2.1 8.2-2.1 2.5 0 4.9.5 7.2 1.6 2.4 1 4.4 2.5 6.1 4.5z" fill="#fff"></path><path d="m422.1 219.7c4.3 0 8 1.6 11.1 4.7s4.6 6.9 4.6 11.3-1.5 8.2-4.6 11.2c-3 3.1-6.7 4.6-11.1 4.6-4.5 0-8.3-1.6-11.3-4.7s-4.5-6.9-4.5-11.2c0-2.9.7-5.6 2.1-8s3.3-4.4 5.8-5.8c2.4-1.4 5.1-2.1 7.9-2.1zm0 5.6c-2.8 0-5.2 1-7.1 2.9s-2.9 4.4-2.9 7.4c0 3.3 1.2 6 3.6 7.9 1.9 1.5 4 2.3 6.4 2.3 2.7 0 5.1-1 7-3s2.9-4.4 2.9-7.3-1-5.3-2.9-7.3c-1.9-1.9-4.3-2.9-7-2.9z" fill="#fff"></path><path d="m443.4 233h10.5v5.2h-10.5z" fill="#fff"></path><path d="m461 220.5h16.5v5.6h-10.8v5.5h10.8v5.5h-10.8v8h10.8v5.7h-16.5z" fill="#fff"></path><path d="m482.9 220.5h6.8c4.4 0 7.7.5 9.8 1.6s3.9 2.9 5.3 5.3 2.1 5.3 2.1 8.6c0 2.3-.4 4.5-1.2 6.4-.8 2-1.8 3.6-3.2 4.9s-2.8 2.2-4.4 2.7-4.3.7-8.3.7h-6.9zm5.7 5.5v19.1h2.7c2.6 0 4.5-.3 5.7-.9s2.2-1.6 2.9-3.1c.8-1.4 1.1-3.2 1.1-5.3 0-3.2-.9-5.7-2.7-7.5-1.6-1.6-4.2-2.4-7.8-2.4h-1.9z" fill="#fff"></path><path d="m512.2 220.1h5.8v19.6c0 1.7.1 2.9.4 3.6s.8 1.3 1.5 1.7 1.5.6 2.5.6 1.9-.2 2.6-.7 1.2-1.1 1.5-1.8.4-2.1.4-4.1v-18.9h5.8v18.1c0 3-.2 5.2-.5 6.3-.3 1.2-1 2.3-2 3.4s-2.1 1.9-3.3 2.4c-1.3.5-2.7.8-4.4.8-2.2 0-4.1-.5-5.7-1.5s-2.8-2.3-3.5-3.8-1.1-4.1-1.1-7.7z" fill="#fff"></path><path d="m567.2 225.8-4 3.8c-2.7-2.9-5.8-4.3-9.3-4.3-2.9 0-5.3 1-7.3 3s-3 4.4-3 7.3c0 2 .4 3.8 1.3 5.4s2.1 2.8 3.7 3.7 3.4 1.3 5.3 1.3c1.7 0 3.2-.3 4.6-.9s2.9-1.8 4.6-3.4l3.9 4.1c-2.2 2.2-4.4 3.7-6.3 4.5-2 .8-4.3 1.3-6.8 1.3-4.7 0-8.6-1.5-11.6-4.5s-4.5-6.8-4.5-11.5c0-3 .7-5.7 2-8.1 1.4-2.3 3.3-4.2 5.9-5.7 2.5-1.4 5.3-2.1 8.2-2.1 2.5 0 4.9.5 7.2 1.6 2.5 1 4.5 2.5 6.1 4.5z" fill="#fff"></path><path d="m581.5 220.5h5.8l11.7 30.3h-6l-2.4-6.2h-12.4l-2.5 6.2h-6zm3 8-4.1 10.4h8.1z" fill="#fff"></path><path d="m600.5 220.5h16.7v5.7h-5.5v24.6h-5.8v-24.6h-5.4z" fill="#fff"></path><path d="m620.8 220.5h5.7v30.3h-5.7z" fill="#fff"></path><path d="m647.3 219.7c4.3 0 8 1.6 11.1 4.7s4.6 6.9 4.6 11.3-1.5 8.2-4.6 11.2-6.7 4.6-11.1 4.6c-4.5 0-8.3-1.6-11.3-4.7s-4.5-6.9-4.5-11.2c0-2.9.7-5.6 2.1-8s3.3-4.4 5.8-5.8c2.4-1.4 5.1-2.1 7.9-2.1zm-.1 5.6c-2.8 0-5.2 1-7.1 2.9s-2.9 4.4-2.9 7.4c0 3.3 1.2 6 3.6 7.9 1.9 1.5 4 2.3 6.4 2.3 2.7 0 5.1-1 7-3s2.9-4.4 2.9-7.3-1-5.3-2.9-7.3c-1.8-1.9-4.2-2.9-7-2.9z" fill="#fff"></path><path d="m668.4 220.5h5.5l13 19.9v-19.9h5.8v30.3h-5.5l-12.9-19.9v19.9h-5.8v-30.3z" fill="#fff"></path><path d="m708.9 220.5h5.8l11.7 30.3h-6l-2.4-6.2h-12.4l-2.5 6.2h-6zm2.9 8-4.1 10.4h8.1z" fill="#fff"></path><path d="m730.8 220.5h5.8v24.8h8.4v5.5h-14.2z" fill="#fff"></path><path d="m770.8 216h3.3v39.3h-3.3z" fill="#fff"></path><path d="m798.3 220.5h16.5v5.6h-10.8v5.5h10.8v5.5h-10.8v8h10.8v5.7h-16.5z" fill="#fff"></path><path d="m820.2 220.5h5.8v24.8h8.4v5.5h-14.2z" fill="#fff"></path><path d="m866.6 225.8-4 3.8c-2.7-2.9-5.8-4.3-9.3-4.3-2.9 0-5.3 1-7.3 3s-3 4.4-3 7.3c0 2 .4 3.8 1.3 5.4s2.1 2.8 3.7 3.7 3.4 1.3 5.3 1.3c1.7 0 3.2-.3 4.6-.9s2.9-1.8 4.6-3.4l3.9 4.1c-2.2 2.2-4.4 3.7-6.3 4.5-2 .8-4.3 1.3-6.8 1.3-4.7 0-8.6-1.5-11.6-4.5s-4.5-6.8-4.5-11.5c0-3 .7-5.7 2-8.1 1.4-2.3 3.3-4.2 5.9-5.7 2.5-1.4 5.3-2.1 8.2-2.1 2.5 0 4.9.5 7.2 1.6 2.4 1 4.4 2.5 6.1 4.5z" fill="#fff"></path><path d="m880.5 220.5h16.7v5.7h-5.5v24.6h-5.8v-24.6h-5.4z" fill="#fff"></path><path d="m915.5 219.7c4.3 0 8 1.6 11.1 4.7s4.6 6.9 4.6 11.3-1.5 8.2-4.6 11.2c-3 3.1-6.7 4.6-11.1 4.6-4.5 0-8.3-1.6-11.3-4.7s-4.5-6.9-4.5-11.2c0-2.9.7-5.6 2.1-8s3.3-4.4 5.8-5.8c2.4-1.4 5-2.1 7.9-2.1zm-.1 5.6c-2.8 0-5.2 1-7.1 2.9s-2.9 4.4-2.9 7.4c0 3.3 1.2 6 3.6 7.9 1.9 1.5 4 2.3 6.4 2.3 2.7 0 5.1-1 7-3s2.9-4.4 2.9-7.3-1-5.3-2.9-7.3c-1.9-1.9-4.2-2.9-7-2.9z" fill="#fff"></path><path d="m946.1 220.5h5.9l7.6 21.5 7.7-21.5h5.9l-10.9 30.3h-5.6z" fill="#fff"></path><path d="m1005.7 225.8-4 3.8c-2.7-2.9-5.8-4.3-9.3-4.3-2.9 0-5.3 1-7.3 3s-3 4.4-3 7.3c0 2 .4 3.8 1.3 5.4s2.1 2.8 3.7 3.7 3.4 1.3 5.3 1.3c1.7 0 3.2-.3 4.6-.9s2.9-1.8 4.6-3.4l3.9 4.1c-2.2 2.2-4.4 3.7-6.3 4.5-2 .8-4.3 1.3-6.8 1.3-4.7 0-8.6-1.5-11.6-4.5s-4.5-6.8-4.5-11.5c0-3 .7-5.7 2-8.1 1.4-2.3 3.3-4.2 5.9-5.7 2.5-1.4 5.3-2.1 8.2-2.1 2.5 0 4.9.5 7.2 1.6 2.5 1 4.5 2.5 6.1 4.5z" fill="#fff"></path><path d="m1010.8 220.5h16.5v5.6h-10.8v5.5h10.8v5.5h-10.8v8h10.8v5.7h-16.5z" fill="#fff"></path><path d="m199.1 265 4.4 10.9s-.8 2.9-9.1 3.4c-8.2.4-7.1 5.2-7.1 5.2s-3.6-13.6-13.6-7.3c-8.7 5.5-16.3 7.6-19.1 5s4.9-15.3 31.3-18.8 3.1-9 3.1-9-5-1.2-5-3.6c-.1-2.4 6-5.6 19-3.4 13.3 2.3 28.4 16.5 40.4 14.2 0 0-2.3 3.6-16.2 2.8 0 0 5.5 5.8 15.3 5.8 0 0-6.9 6.6-21.3-.6-14.6-7.1-22.1-4.6-22.1-4.6z" fill="#0058a9"></path><path d="m183.9 250.8c.1 2.4 5 3.6 5 3.6s23.3 5.5-3.1 9c-.7.1-1.3.2-1.9.3v-12.9c0-.1 0-.1 0 0z" fill="#febe10"></path><path d="m46.5 265-4.4 10.9s.8 2.9 9.1 3.4c8.2.4 7.1 5.2 7.1 5.2s3.6-13.6 13.6-7.3c8.7 5.5 16.3 7.6 19.1 5s-4.9-15.3-31.3-18.8-3.1-9-3.1-9 5-1.2 5-3.6c.1-2.4-6-5.6-19-3.4-13.3 2.3-28.4 16.5-40.4 14.2 0 0 2.3 3.6 16.2 2.8 0 0-5.5 5.8-15.3 5.8 0 0 6.9 6.6 21.3-.6 14.6-7.1 22.1-4.6 22.1-4.6z" fill="#0058a9"></path><path d="m61.7 250.8c-.1 2.4-5 3.6-5 3.6s-23.3 5.5 3.1 9c.7.1 1.3.2 1.9.3v-12.9c0-.1 0-.1 0 0z" fill="#febe10"></path><path d="m184.7 279-.1-.2c-2.1-3-5.7-5-10.9-1.7-8.6 5.4-16.1 7.6-19 5.1.7.8 2 1.9 4 3 4.6 2.6 10.3 9.8 10.9 10.5-12.6 10.5-28.9 16.7-46.6 16.7s-34-6.4-46.7-16.9c.4-.5 6.1-7.7 10.8-10.3 2-1.1 3.3-2.2 4-3-2.9 2.5-10.4.3-19-5.1-5.1-3.2-8.6-1.3-10.7 1.5-.2.3-.5.6-.7 1l-11.8 17c16.1 21.6 45 34.8 74 34.8 28.9 0 57.9-13.2 74-34.7z" fill="#febe10"></path><path d="m122.8 330.4c28.6 0 57.1-13.2 72.8-33.8l-11-16c-13.8 20.7-36.7 33-61.6 33s-47.9-12.4-61.7-33.2l-11.3 16.2c15.6 20.5 44.1 33.8 72.8 33.8z" fill="#0058a9"></path><path d="m61.5 299.1c-.5-.5-.9-1.2-1-2l1-.1c.1.6.2 1.1.7 1.4.3.3.6.4.8.2.2-.2.2-.4-.3-1.1-.5-.9-.8-1.5-.1-2.2.6-.6 1.5-.6 2.3.1.5.5.8 1.1.9 1.7l-1 .2c-.1-.5-.3-.9-.6-1.2s-.6-.3-.8-.1c-.2.2-.1.5.3 1.2.5.9.7 1.5.1 2.1-.6.7-1.5.6-2.3-.2z" fill="#fff"></path><path d="m63.7 301.1 3.2-3.7 2.8 2.4-.6.7-2-1.7-.7.8 1.7 1.5-.6.7-1.7-1.5-.7.8 2 1.7-.6.7z" fill="#fff"></path><path d="m67.3 304.2 3-3.9 2.9 2.3-.6.8-2.1-1.6-.6.8 1.8 1.4-.6.8-1.8-1.4-.6.8 2.1 1.6-.6.8z" fill="#fff"></path><path d="m73.8 309v-2.6l-.8.2-.9 1.2-.9-.6 2.8-4 .9.6-1.2 1.8 2.9-.6 1.1.8-2.8.6.1 3.5z" fill="#fff"></path><path d="m81.3 313.8-.8-.5.7-3.3-2.6 2.2-.8-.5 1.1-5.1 1 .6-.8 3.4 2.6-2.3.8.5-.7 3.4 2.6-2.4 1 .6z" fill="#fff"></path><path d="m83.7 315 2.2-4.4 1 .5-2.2 4.4z" fill="#fff"></path><path d="m87.5 316.9c-.7-.3-1.2-.9-1.6-1.6l.9-.4c.2.5.6.9 1.1 1.2.4.2.7.1.8-.1.1-.2 0-.4-.6-1-.8-.6-1.3-1.2-.8-2 .4-.8 1.3-1 2.2-.6.7.3 1.1.8 1.4 1.3l-.9.5c-.3-.5-.6-.8-1-1s-.7-.1-.8.1c-.1.3 0 .5.7 1 .8.7 1.2 1.2.8 2-.4.8-1.3 1-2.2.6z" fill="#fff"></path><path d="m91.9 318.7-1.8-.7 1.8-4.6 1.8.7c1.4.6 2 1.9 1.5 3.2-.5 1.4-1.9 2-3.3 1.4zm2.3-1.7c.3-.8 0-1.6-.8-1.9l-.8-.3-1.1 2.8.8.3c.8.2 1.6-.1 1.9-.9z" fill="#fff"></path><path d="m97.7 320.9c-1.4-.5-2.1-1.9-1.7-3.2.4-1.3 1.8-2.1 3.3-1.6s2.1 1.9 1.7 3.2c-.5 1.3-1.9 2-3.3 1.6zm2.1-2c.3-.8-.1-1.7-.9-1.9-.8-.3-1.6.2-1.9 1-.3.8.1 1.7.9 1.9.9.3 1.7-.2 1.9-1z" fill="#fff"></path><path d="m105 322.8.7-3.1-1.8 1.7-.8-2.3-.7 3.1-1-.2 1.1-4.8 1.1.3.8 2.3 1.7-1.7 1.1.3-1.1 4.8z" fill="#fff"></path><path d="m113 324.2-.3-1.2-2.1-.3-.6 1-1.1-.2 2.8-4.6 1 .1 1.4 5.2zm-.9-3.8-.9 1.5 1.3.2z" fill="#fff"></path><path d="m118.5 324.7-2.1-3.3-.2 3.1-1.1-.1.4-4.9 1 .1 2.1 3.2.2-3 1.1.1-.4 4.9z" fill="#fff"></path><path d="m122.7 324.9h-1.9l.1-4.9h1.9c1.5 0 2.6 1.1 2.6 2.5-.1 1.3-1.2 2.4-2.7 2.4zm1.5-2.5c0-.9-.6-1.5-1.5-1.5h-.8v3h.8c.9 0 1.5-.6 1.5-1.5z" fill="#fff"></path><path d="m130 324.7c-1.3.1-2.2-.6-2.3-2l-.2-2.8 1.1-.1.2 2.8c.1.8.5 1.2 1.1 1.1.7-.1 1-.5 1-1.3l-.2-2.8 1.1-.1.2 2.8c0 1.5-.7 2.3-2 2.4z" fill="#fff"></path><path d="m136.8 323.8-2.8-2.7.5 3.1-1.1.2-.7-4.9 1-.1 2.7 2.7-.4-3 1.1-.2.7 4.9z" fill="#fff"></path><path d="m140.9 323-1.9.4-1-4.8 1.9-.4c1.5-.3 2.8.5 3.1 1.8.2 1.4-.6 2.7-2.1 3zm.9-2.7c-.2-.8-.9-1.3-1.8-1.1l-.8.2.6 2.9.8-.2c1-.2 1.4-.9 1.2-1.8z" fill="#fff"></path><path d="m144.6 322.2-1.3-4.7 3.6-1 .3.9-2.5.7.3 1 2.2-.6.3.9-2.2.6.3 1 2.6-.7.3.9z" fill="#fff"></path><path d="m152.1 319.9-1.5-1.1-.8.3.5 1.5-1 .4-1.6-4.6 2.1-.7c1.1-.4 2 0 2.3.9.3.8 0 1.4-.5 1.8l1.7 1.3zm-1.1-3.1c-.2-.4-.5-.6-1-.4l-1 .3.5 1.3 1-.4c.5 0 .7-.4.5-.8z" fill="#fff"></path><path d="m155.8 318.5c-.7.3-1.5.3-2.2.1l.3-.9c.5.2 1.1.2 1.6 0 .4-.2.6-.4.5-.7-.1-.3-.3-.3-1.2-.2-1 .1-1.7.1-2.1-.8-.3-.8.1-1.6 1-2 .7-.3 1.3-.3 1.9-.1l-.2 1c-.5-.1-1-.1-1.4 0-.4.2-.5.4-.4.6.1.3.4.3 1.2.2 1-.1 1.7 0 2 .8.5.8 0 1.6-1 2z" fill="#fff"></path><path d="m158.7 312.9 1.6 3.6-1 .5-1.6-3.6-1.4.6-.4-.9 3.7-1.7.4.9z" fill="#fff"></path><path d="m165.3 313.9-.9-.8-1.8 1 .1 1.2-1 .5-.4-5.4.9-.5 4.2 3.4zm-3.1-2.5.2 1.7 1.2-.6z" fill="#fff"></path><path d="m170 311.2-3.7-1.4 1.6 2.7-.9.5-2.6-4.2.9-.5 3.5 1.4-1.6-2.6.9-.6 2.6 4.2z" fill="#fff"></path><path d="m173.4 308.9-1.6 1.1-2.8-4 1.6-1.1c1.3-.9 2.7-.6 3.5.5.9 1.1.6 2.6-.7 3.5zm-.1-2.9c-.5-.7-1.3-.9-2.1-.4l-.7.5 1.7 2.4.7-.5c.7-.4.9-1.3.4-2z" fill="#fff"></path><path d="m176.5 306.7-3-3.9.9-.7 3 3.9z" fill="#fff"></path><path d="m181.1 303-3.8-.9 2 2.4-.8.7-3.1-3.8.8-.6 3.7.9-1.9-2.3.8-.7 3.1 3.8z" fill="#fff"></path><path d="m184.6 300c-1.1 1-2.6 1-3.6-.1-.9-1-.9-2.6.2-3.6.7-.6 1.2-.8 1.9-.8l.1 1.1c-.5 0-.9.1-1.3.5-.6.5-.6 1.5 0 2.1.6.7 1.5.7 2.2.1.3-.3.5-.6.5-.9l-.5-.5-.8.7-.6-.7 1.6-1.4 1.4 1.6c-.2.6-.5 1.3-1.1 1.9z" fill="#fff"></path><path d="m183.5 205c0-.3 0-.6 0-.9 0-.8 0-1.5 0-2.3v-.5s0 0 0-.1v-14.2-4.4-14.7-4.3h-4.3-55.8-1-55.8-4.4v4.4 33.7c0 19.7 4.3 39 12.6 56 .1.3.3.6.4.9.3.5.5 1 .8 1.5.3.7.7 1.3 1 2 0 .1.1.1.1.2l.3.6c.5.9 1 1.9 1.6 2.8.1.1.1.2.2.4.6 1.1 1.2 2.1 1.9 3.1 4.1 6.6 9 12.8 14.5 18.5 0 0 .1.1.1.1.8.8 1.6 1.7 2.5 2.5l.5.5c.7.7 1.4 1.3 2.1 2 .3.3.7.6 1 .9.6.5 1.1 1 1.7 1.5l1.5 1.2c.4.4.9.7 1.3 1.1.6.5 1.3 1 1.9 1.5.4.3.7.6 1.1.8l2.1 1.5c.4.3.8.6 1.2.8.6.4 1.2.9 1.9 1.3.3.2.5.3.7.5 1.7 1.1 3.4 2.1 5.1 3.1l.5.3 2.2 1.3 2.2-1.3.4-.3c1.7-1 3.4-2 5.1-3.1.2-.1.4-.3.6-.4 6.3-4.1 12.1-8.9 17.4-14.1.3-.3.6-.6.9-.9.4-.4.7-.7 1.1-1.1 15.4-16 25.1-35.4 29.7-56.1 1.8-8.5 2.9-17.3 3.1-26.3z" fill="#febe10"></path><path d="m123.4 303.1-.5.3-.5-.3c-2.5-1.4-4.9-3-7.2-4.6 0-1.9 0-3.6 0-3.6v-107.9-4.3h-4.3-44.3v-14.7h55.8 1 55.8v14.7h-44.2-4.4v4.4 107.9 3.6c-2.3 1.6-4.7 3.1-7.2 4.5z" fill="#910028"></path><path d="m110.8 295.4c-.1-.1-.2-.1-.2-.2-1.6-1.3-3.2-2.6-4.8-3.9-.1-.1-.3-.3-.4-.4-13.3-11.7-23.5-26.4-30-42.9-.1-.1-.1-.3-.2-.4-.8-1.9-1.5-3.9-2.1-5.8-.1-.3-.2-.5-.3-.8-.6-1.9-1.2-3.8-1.7-5.7-.1-.3-.2-.6-.2-.9-.5-1.8-.9-3.7-1.3-5.5-.1-.3-.1-.6-.2-.9-.4-1.7-.7-3.5-1-5.3-.1-.5-.2-1-.2-1.5-.3-1.8-.5-3.6-.7-5.3-.1-.6-.1-1.2-.2-1.7-.2-1.8-.3-3.6-.4-5.4 0-.5 0-1-.1-1.5-.1-2-.1-4-.1-6v-14.2h44.2v108.3z" fill="#006f45"></path><path d="m179.1 206.8c0 .7-.1 1.5-.1 2.2-.1 1.6-.2 3.1-.3 4.6-.1.9-.2 1.8-.3 2.6-.2 1.3-.3 2.7-.5 4-.1.9-.3 1.9-.4 2.8-.2 1.3-.5 2.7-.7 4-.1.6-.3 1.3-.4 1.9-.4 1.7-.8 3.4-1.2 5.1-.1.4-.2.7-.3 1.1-.5 2-1.1 3.9-1.7 5.8-.1.2-.1.3-.2.5-5.6 16.8-14.9 32.2-27.4 44.7-.1.1-.3.3-.4.4-1.4 1.4-2.9 2.7-4.4 4.1-.2.2-.5.4-.7.6-1.5 1.3-3.1 2.6-4.7 3.8-.1.1-.2.1-.2.2v-108.4h44.2v14.2c-.2 2.1-.2 4-.3 5.8z" fill="#0058a9"></path><g fill="#fff"><circle cx="87.3" cy="196.9" r=".8"></circle><path d="m89.9 229.9c-9.9-10.6-6.1-22.4-5.1-24.9 1 0 1.9-.7 2.1-1.7v-.2c.3-1.5 1-2.8 2.1-3.8l-2.4-.9-2.4-.9c.1 1.5-.3 3-1.1 4.2l-.1.2c-.6.9-.4 2 .3 2.6-1 2.7-5 15.5 5.4 26.5 10.4 11.1 7 29.3 7 29.5-.1.4.2.9.6.9h.2c.4 0 .7-.3.8-.6.1-.8 3.6-19.2-7.4-30.9z"></path><circle cx="93.5" cy="207.4" r=".8"></circle><path d="m88.9 211.5c1.2-.8 2.7-1.3 4.2-1.2l-1-2.4-1-2.4c-1 1.1-2.3 1.9-3.8 2.2l-.2.1c-1.3.3-2 1.7-1.5 2.9s2 1.7 3.1.9z"></path><circle cx="93.9" cy="216" r=".8"></circle><path d="m89.7 220.6c1.1-1 2.5-1.5 4-1.6l-1.3-2.2-1.3-2.2c-.9 1.2-2.1 2.1-3.5 2.6l-.2.1c-1.3.4-1.8 1.9-1.2 3 .6 1.2 2.2 1.4 3.2.6z"></path><circle cx="97.8" cy="223" r=".8"></circle><path d="m94 227.8c1.1-1 2.4-1.7 3.9-2l-1.4-2.1-1.4-2.1c-.8 1.3-1.9 2.3-3.3 2.9l-.2.1c-1.2.5-1.7 2-.9 3.1.7 1.1 2.3 1.3 3.3.3z"></path><circle cx="103" cy="230.2" r=".8"></circle><path d="m99.5 235.3c1-1.1 2.3-1.9 3.7-2.2l-1.6-2-1.6-2c-.7 1.3-1.8 2.4-3.1 3.1l-.2.1c-1.2.6-1.5 2.1-.7 3.2s2.4 1.1 3.3.1z"></path><circle cx="106.9" cy="239.2" r=".8"></circle><path d="m102.9 243.9c1.1-1 2.5-1.6 4-1.8l-1.3-2.2-1.3-2.2c-.8 1.2-2 2.2-3.4 2.7l-.2.1c-1.3.5-1.8 1.9-1.1 3.1.7 1.1 2.2 1.4 3.2.5z"></path><circle cx="84.6" cy="244.1" r=".8"></circle><path d="m90.3 241.6c-1.4.4-3 .4-4.4-.1l.2 2.6.2 2.6c1.3-.8 2.8-1.1 4.3-.9h.2c1.3.1 2.4-1 2.3-2.3s-1.4-2.2-2.7-1.8z"></path><circle cx="80.9" cy="234.9" r=".8"></circle><path d="m86.9 233.5c-1.5.2-3-.1-4.3-.9l-.2 2.6-.2 2.6c1.4-.5 2.9-.6 4.3-.2l.2.1c1.3.4 2.6-.5 2.7-1.9.1-1.3-1-2.4-2.3-2.3z"></path><circle cx="75.5" cy="224.2" r=".8"></circle><path d="m81.6 225.2c-1.4-.4-2.7-1.3-3.6-2.5l-1.2 2.3-1.2 2.3c1.5.1 2.9.6 4.1 1.5l.2.1c1 .8 2.6.5 3.2-.7s0-2.6-1.3-3z"></path><circle cx="73" cy="213.6" r=".8"></circle><path d="m78.7 215.9c-1.3-.7-2.4-1.8-3-3.2l-1.6 2-1.6 2c1.4.4 2.7 1.2 3.7 2.3l.1.2c.8 1 2.4 1 3.3 0 .8-1 .6-2.6-.6-3.2z"></path><circle cx="73.3" cy="203.2" r=".8"></circle><path d="m78.9 205.9c-1.3-.8-2.2-2-2.8-3.4l-1.8 1.9-1.8 1.9c1.4.5 2.6 1.4 3.5 2.6l.1.2c.8 1.1 2.3 1.2 3.3.2.9-1 .7-2.5-.4-3.2z"></path><path d="m154.5 195.1 3.8-.9-1.8 3.5 3.1 2.4-3.8.8v3.9l-3-2.5-3 2.4.1-3.8-3.8-.9 3.1-2.3-1.8-3.5 3.8.9 1.7-3.5z"></path><path d="m146.7 216.6 3.8-.9-1.8 3.5 3.1 2.4-3.8.8v3.8l-3-2.4-3 2.4.1-3.9-3.8-.8 3.1-2.4-1.7-3.5 3.7 1 1.7-3.5z"></path><path d="m169.3 210.7 3.8-.9-1.8 3.4 3.1 2.4-3.8.8v3.9l-3-2.5-3 2.5.1-3.9-3.8-.8 3.1-2.4-1.8-3.5 3.8 1 1.7-3.6z"></path><path d="m154.8 251 3.8-.9-1.8 3.4 3.1 2.4-3.8.8v3.9l-3-2.5-3 2.5.1-3.9-3.8-.8 3-2.4-1.7-3.5 3.8.9 1.7-3.5z"></path><path d="m164.4 229.2 1.9-.5-.9 1.8 1.5 1.2-1.9.4.1 1.9-1.5-1.2-1.5 1.2v-1.9l-1.9-.4 1.5-1.2-.8-1.8 1.9.5.8-1.8z"></path></g><path clip-rule="evenodd" d="m180.6 121.5 2.2-1.2-2-1.6c-2.2-1.7-4.8-2.8-7.6-3l-4.4-.4 3-.6c3.4-.7 6.5-2.3 8.9-4.7l1.1-1.1-1.5-.6c-3.1-1.3-6.6-1.7-10-1l-21.2 5.3c-2.5.6-5.1.8-7.6.4 0 0-.7-.4-1.9-1.2 8.6-1.8 15.3-4.7 17.9-8.5-8.1 2.4-14.1 0-14.1 0 11-2 18.3-4.8 22.3-11.9-7.9 4-14.5 3.2-14.5 3.2 14.3-4.2 25.7-11.7 25.4-27.5-5.8 11-15 14.3-15.6 14.4 14.7-12.6 17.5-31.7 13.2-39-2.1 15.2-14.1 24.9-14.7 25.5 11.3-18 13.3-31.7 5.7-44.8.6 24.2-11.7 30.8-11.7 30.8 8.8-17.9 11.6-31.3 1-42.9 1.2 8.6-.5 24.9-19.4 43.1-10.2 9.9-18.7 9.5-20.7 24.3-.9 6.9-3.1 11.8-5.7 15.4 0 0-.1 0-.1-.1-2.3.3-3.8-2.3-3.8-2.3 3.7-4.5 1.8-9.5 1.8-9.5-1.1 4.5-4.6 6-4.6 6 4-7.3.1-14.3.1-14.3-.5 7.1-3.5 10.5-3.5 10.5 3.5-17.6-2.4-20.8-2.4-20.8.9 11.2-2.3 16.8-2.3 16.8 3.2-25.3-6.9-27.7-6.9-27.7 3.1 13.8.4 20.6.4 20.6-1.3-33-15.7-29.4-15.7-29.4 8.3 11.9 5.7 18.5 5.7 18.5-11.8-28.9-30-15.4-30-15.4 16.2 5.2 18.7 18.1 18.7 18.1-21.9-25.3-41.6-6.1-41.6-6.1 46 .9 29.2 35 44.7 39.2 15.4 4.1 19.1 13.8 19.1 13.8s.4 4.1-2.1 7.9c-1.7 2.5-3.9 6.6-5.1 9.6-1 2-1.5 4.3-1.1 6.7.3 1.8 1 3.3 2 4.5.3 3.2 1.3 7.1 4.2 8.2-.6-.8-1-1.8-1.1-2.8-.1-.6-.1-1.2.1-1.8s.5-1.2 1-1.5c-.4 1.1-.4 2.1-.2 3.2 0 .3.1.7.2 1 1.2-.1 3.3-.8 4.2-3.6 3.9-1.1 6.6-4.9 6.9-9.1.6-.1 1.1-.1 1.8 0 4.4.8 7.8 2.9 9.3 3.9-.2 1.2-.4 2.4-.4 3.6 0 7.3 1.9 12.5 1.9 12.5l1.5-1.6c.6 2.4 1.3 7.3.1 8-2.4 1.7-3.3 2.4-4.6 3.6-2.1 1.9-2.5 2.8-2 5.3v.1c0 .2.1.3.1.5.3 1 1.3 1.6 2.2 1.3.3-.1.5-.2.7-.4-1.2-.1-1.6-.6-1.8-1.3v-.1c.5 0 .8-.1.9-.7.1-.8.9-4.6 5.7-5.4h7.4c-.2-.5-.6-1.1-1.3-1.6l-2.3-1.7-1.3-1-.5-6.5h.7c.3.3.6.6.9 1 1.1-2.9 1.5-6 1.3-9.2-.1-.9-.1-1.8-.1-2.7 1.2-.1 2.7-.5 4.3-1.2-1.5 11.3 4.8 17.2 4.8 17.2.2-.7.5-1.6.7-2.5.2-.3.4-.5.6-.8.4 2.4.6 5.5-.3 6.1-2.4 1.7-3.3 2.4-4.6 3.6-2.1 1.9-2.5 2.8-2 5.3v.1c0 .2.1.3.1.5.3 1 1.3 1.6 2.2 1.3.3-.1.5-.2.7-.4-1.2-.1-1.6-.6-1.8-1.3v-.1c.5 0 .8-.1.9-.7.1-.8.9-4.6 5.7-5.4h7.4c-.2-.5-.6-1.1-1.3-1.6l-2.3-1.7-1.3-1-.5-6.5c1.5 2.2 2.6 3.3 2.6 3.3 2.1-4.8 1.5-15.6 1.5-15.6s3.7-5.2 5.5-9l14.4 10.5c1.5 1.1 3.3 1.7 5.1 1.8l4 .2-1.4-3.8c-.6-1.7-1.8-3.2-3.2-4.3l3.2 1.9c1.9 1.1 4 1.6 6.1 1.4l3.5-.2-1.6-3.2c-.9-1.9-2.4-3.5-4.3-4.6l-1.9-1.1 4 1.2c3.5 1.1 7.3 1.1 10.9 0l1.1-.3-.7-.9c-2.3-2.9-5.5-4.9-9-6l-3.8-1.2 5.8.5c2.7.3 5.5-.3 8-1.7zm-92.4 14.3c-.3.7-1.2 1.1-2 .7 0 0-.5.9-.8 1.4-.3-1.5 1.6-5.4 2.4-5.8-.1.5-.4 1.8-.4 1.8.8.3 1.1 1.2.8 1.9z" fill="#0058a9" fill-rule="evenodd"></path></svg> 