<?xml version="1.0" encoding="UTF-8"?> <svg xmlns="http://www.w3.org/2000/svg" id="Layer_1" data-name="Layer 1" viewBox="0 0 73.37 73.19"><defs><style>.cls-1{fill:#000c56;}</style></defs><path class="cls-1" d="M59,72.93H14.44A6.91,6.91,0,0,1,7.54,66v-1.3h-.2a6.91,6.91,0,0,1-6.9-6.9V46.13a6.91,6.91,0,0,1,6.9-6.9h.2V26.13c0-9.9,7.3-17.5,17.6-18.5V5.53a5.12,5.12,0,0,1,5.1-5.1h11.7A5.12,5.12,0,0,1,47,5.53v2c10.8.5,18.8,8.3,18.8,18.6v13.1H66a6.91,6.91,0,0,1,6.9,6.9v11.7a6.91,6.91,0,0,1-6.9,6.9h-.2v1.4A6.74,6.74,0,0,1,59,72.93Zm-49.5-9.2V66a4.91,4.91,0,0,0,4.9,4.9H59a4.91,4.91,0,0,0,4.9-4.9V26c0-9.5-7.3-16.4-17.4-16.6-5.66,0-20.2.1-20.2.1-9.8.6-16.8,7.6-16.8,16.6v14.2h0Zm-2.2-22.4a4.89,4.89,0,0,0-4.8,4.9v11.7a4.91,4.91,0,0,0,4.9,4.9h.2V41.43Zm58.6,21.3h.2a4.91,4.91,0,0,0,4.9-4.9V46.13a4.91,4.91,0,0,0-4.9-4.9h-.2ZM27.14,7.53l18,.1v-2A3.12,3.12,0,0,0,42,2.53H30.24a3.12,3.12,0,0,0-3.1,3.1Zm24.8,58H21.54a2.26,2.26,0,0,1-2.3-2.3V47.63a7.34,7.34,0,0,1,7.3-7.3h20.3a7.34,7.34,0,0,1,7.3,7.3v15.6A2.13,2.13,0,0,1,51.94,65.53Zm-30.7-16.7v14.5a.27.27,0,0,0,.3.3h30.3a.27.27,0,0,0,.3-.3V48.83Zm.1-2h30.8a5.27,5.27,0,0,0-5.2-4.4H26.54A5.27,5.27,0,0,0,21.34,46.83Zm38.1-14.4h0a1,1,0,0,1-1-1,14.85,14.85,0,0,0-15-15H29.94a15,15,0,0,0-14.9,15,1,1,0,0,1-2,0,17,17,0,0,1,16.9-17h13.6a16.86,16.86,0,0,1,12,4.9,16.52,16.52,0,0,1,4.9,12.1A1,1,0,0,1,59.44,32.43Zm-12.1-.7H25a1,1,0,0,1,0-2h22.3a.94.94,0,0,1,1,1A1,1,0,0,1,47.34,31.73Z"></path><path class="cls-1" d="M30.64,58.3a3.7,3.7,0,1,1,3.7-3.7A3.69,3.69,0,0,1,30.64,58.3Zm0-5.4a1.69,1.69,0,0,0-1.7,1.7,1.7,1.7,0,1,0,1.7-1.7Z"></path><path class="cls-1" d="M42.44,58.3a3.7,3.7,0,0,1,0-7.4,3.76,3.76,0,0,1,3.7,3.7A3.69,3.69,0,0,1,42.44,58.3Zm0-5.4a1.69,1.69,0,0,0-1.7,1.7,1.75,1.75,0,0,0,1.7,1.7,1.7,1.7,0,1,0,0-3.4Z"></path></svg> 