<?xml version="1.0" encoding="UTF-8"?> <svg xmlns="http://www.w3.org/2000/svg" fill="none" height="120" viewBox="0 0 155 120" width="155"><g fill="#903"><path d="m76.4675 69.8392c-.6818 0-1.5341-.1712-2.2159-.5135-25.5682-10.4417-36.3069-34.0638-33.2387-50.8389 1.875-10.95512 10.0568-18.4868 20.4546-18.4868 5.1136 0 10.0568 1.54057 15 4.79288 5.1137-3.08114 10.2273-4.79288 14.8296-4.79288 10.3979 0 18.4089 7.18933 20.6249 18.3157 2.727 14.5498-5.795 39.8836-33.2386 51.01-.6818.3423-1.3636.5135-2.2159.5135zm-1.3636-2.3964.6818-1.1983c.5114.3424 1.0227.3424 1.5341 0 25.9092-10.4416 33.7502-33.8925 31.1932-47.073-1.875-9.41456-8.6932-15.57683-17.3864-15.57683-4.2613 0-9.0341 1.71174-13.9773 4.79288l-1.0227.6847-1.0227-.6847c-4.6023-3.25232-9.2046-4.79288-13.9773-4.79288-8.6932 0-15.341 6.16227-17.0455 15.57683-3.9205 22.0816 16.0227 40.9107 31.3637 47.073z"></path><path d="m74.3595 119.226h-23.6085c-.8554 0-1.8819-.346-2.5662-.864-.8554-.519-2.0529-2.073-1.7107-4.492l1.1975-9.675c.1711-1.9-.8554-3.628-2.5662-4.3191l-.171-.1728-16.7655-9.3293c-5.3034-2.5915-9.9224-6.7379-12.6597-11.9209-.171-.3455-.3421-.691-.3421-1.0365l-14.883652-39.9089c-.3421527-.691-.3421518-1.7276-.171075-2.4187.342152-.8638 1.026457-1.5549 2.052917-1.9004 5.64552-2.4187 11.97531-.1728 14.88361 5.5285l7.5274 14.1668c4.9612-1.5549 9.5803 1.7276 12.4886 3.8008l20.0159 13.8212c11.9753 5.8741 13.0018 10.366 15.2258 19.3498.3421 1.0366.5132 2.2459.8554 3.4553l3.7637 22.1142c.3421 1.727-.5133 3.282-2.224 3.801zm-27.8854-22.4599c3.0793 1.2093 4.7901 4.3189 4.619 7.7749l-1.1975 9.847c-.1711.691.1711 1.037.1711 1.21.171.172.5132.172.6843.172h22.7531l-3.5926-21.7682c-.3421-1.2093-.5132-2.2459-.8554-3.4553-2.0529-8.6382-2.9083-11.9208-13.515-17.1037l-.1711-.1728-20.187-13.8212c-3.7637-2.5915-7.1852-4.8375-10.6067-2.9371l-1.3686.6911-.1711.1728c-.1711.1727-.6843.8638-1.0265 1.2093v.1728l10.2646 6.5651c3.0794 2.2459 6.3298 4.4919 8.896 7.0834l1.1975 1.0366c.6843.691.6843 1.7276 0 2.4187-.6843.691-1.7107.691-2.395 0l-1.1976-1.0366c-2.395-2.4187-5.4744-4.6647-8.3827-6.5651l-10.4357-6.5651c-.6843-.5183-1.0264-1.2094-1.3686-1.5549v-.3455-.3455c-.1711-1.2094.1711-2.0732.5132-2.5915.5133-.6911 1.3687-1.7277 1.5397-1.9004.3422-.3456.5133-.5183.8554-.8639l-7.5273-13.994c-2.053-3.9736-6.50094-5.7012-10.60678-3.9736l15.22578 40.9454c2.5662 4.4919 6.5009 8.12 11.12 10.366l.3421.1727z"></path><path d="m104.206 119.226h-23.5698l-.3416-.173c-1.708-.518-2.562-2.071-2.2204-3.796l3.7576-21.9145c.3415-1.3804.6831-2.5883.8539-3.6236 2.0496-8.9728 3.2452-13.4593 15.2009-19.3261l19.9834-13.8043c2.903-2.0707 7.686-5.3492 12.468-3.7962l7.515-14.1494c2.733-5.6943 9.223-7.9375 15.03-5.3492.854.1726 1.537.8628 1.879 1.8981.342.8628.342 1.7255-.171 2.4158l-14.859 40.205c0 .3451-.171.5177-.342.8628-2.903 5.1766-7.344 9.3179-12.639 11.9062l-.171.1726-16.738 9.3178c-1.708.69-2.732 2.416-2.562 4.486l1.196 9.664c.512 2.243-.854 3.796-1.708 4.486-.854.172-1.708.518-2.562.518zm-22.7158-3.451h22.7158c.171 0 .513 0 .683-.173.171-.173.342-.345.171-1.035l-1.195-9.836c-.342-3.624 1.537-6.557 4.611-7.9374l16.738-9.3179c4.612-2.2432 8.54-5.8669 11.102-10.3533l15.201-40.7227c-4.099-1.7256-8.54-.1726-10.419 3.7962l-7.515 13.9768c.342.1726.513.5177.854.6903.171.1725 1.025 1.2078 1.537 1.8981.342.5176.683 1.3804.513 2.5883l-.171.5176c-.342.5177-.683 1.2079-1.196 1.553l-10.589 6.7296c-2.904 2.0707-5.978 4.1413-8.369 6.5571l-1.196 1.0353c-.683.6902-1.708.6902-2.391 0s-.683-1.7256 0-2.4158l1.196-1.0353c2.562-2.5883 5.807-4.8315 8.881-6.9022l10.59-6.7296c-.342-.5176-.854-1.2078-1.196-1.3804l-.171-.1725-1.366-.6903c-3.245-1.8981-6.832.3452-10.59 2.9335l-20.3244 13.9768c-10.5894 5.1766-11.4434 8.4552-13.4929 17.0829-.3416 1.0353-.5124 2.2432-.854 3.6236z"></path></g></svg> 