<?xml version="1.0" encoding="UTF-8"?> <svg xmlns="http://www.w3.org/2000/svg" fill="none" height="183" viewBox="0 0 153 183" width="153"><g fill="#ffcb00"><path d="m49.0322 59c-6.8539 0-11.599-2.9594-18.1894-6.995-1.318-.8071-2.6361-1.6142-4.2178-2.6904l-24.51609-17.7566c-2.10890921-1.3452-2.636138-4.0356-1.581682-6.1879l.263615-.269 22.670857-23.13737c1.0544-1.076161 2.1089-1.614238 3.4269-1.8832772 1.3181-.2690388 4.2179.000001 6.0632 2.9594272l7.9084 10.49252c1.5817 1.8833 3.9542 2.4214 6.3267 1.6142h.2636l25.0434-7.26401c7.6448-2.69039 15.8168-3.22847 23.7252-.80712h.5273c.5272 0 .7908.26904 1.0544.53808l52.1952 24.21355c1.055.538 2.109 1.3452 2.637 2.4213.527 1.3452.527 2.6904-.264 4.0356-2.9 7.8021-11.599 12.1068-19.771 9.4164l-20.298-6.1879c-3.427 6.1879-11.072 7.5331-15.8173 8.6092l-32.1609 6.1879c-6.5903 1.6142-11.3354 2.6904-15.2896 2.6904zm-43.4963-31.4776 23.9889 17.2185c1.318.8071 2.6361 1.6143 3.9542 2.4214 10.0173 6.1879 13.7079 8.6092 28.7339 3.4975h.2636l32.4246-6.1879c7.1179-1.3452 11.3349-2.9594 12.6539-7.2641l.527-1.8832s0-.2691 0-.5381c0-.5381 0-1.3452-.264-1.8833l-15.8167 3.7666c-5.0086.8071-10.2809 1.8832-15.2896 1.8832h-2.1089c-1.3181 0-2.6361-1.0761-2.6361-2.6904 0-1.6142 1.0544-2.6903 2.6361-2.6903h2.1089c4.7451 0 9.4901-1.0762 14.4988-1.8833l16.0805-3.7666c1.318-.269 2.372 0 2.9.2691h.527l.264.269c1.581 1.0762 2.108 2.4214 2.108 3.2285.264 1.3452.264 3.2284.264 3.2284v1.3452l20.298 6.1879c5.536 1.8833 11.072-.8071 13.181-5.9188l-52.4592-24.4826c-6.5903-1.88324-13.7079-1.6142-20.2982 1.0762l-.5273.269-24.2525 7.2641c-4.2178 1.8833-9.2265.5381-12.1262-3.2285l-8.1721-10.76155c-.5272-.80712-.7908-.80711-1.0544-.80711s-.5272-.00001-.5272.26903z"></path><path d="m125.537 183c-1.585 0-3.697-.533-5.282-2.93l-7.922-10.387c-1.584-1.864-3.961-2.397-6.337-1.598h-.264l-25.0869 7.191c-7.658 2.664-15.8442 3.196-23.7662.799-.5282 0-1.0563-.266-1.5845-.799l-52.28563-23.97c-1.05628-.533-2.112552-1.332-2.640691-2.397-.528138-1.332-.528137-2.664.26407-3.995 2.904761-7.724 11.619051-11.986 19.805151-9.322l20.3333 6.125c3.4329-6.125 11.091-7.457 15.8442-8.522l32.2164-6.126c17.1648-5.86 22.4458-2.664 33.2728 3.995 1.32.799 2.641 1.598 4.225 2.663l24.558 17.579c2.113 1.331 2.641 3.995 1.585 6.125l-.264.267-22.71 22.905c-1.056 1.065-2.113 1.598-3.433 1.864 0 .267-.264.533-.528.533zm-17.693-20.774c3.169 0 6.074 1.331 8.186 3.995l8.186 10.653c.529.799.793.799 1.057.799s.528 0 .528-.266l21.389-21.574-24.03-17.045c-1.32-.799-2.64-1.598-3.961-2.397-10.034-6.126-13.731-8.523-28.7834-3.463h-.264l-32.4805 6.126c-7.1299 1.332-11.355 2.93-12.6753 7.191l-.5282 1.865v.266c0 .533 0 1.332.2641 1.864l15.8441-3.728c5.0173-.799 10.2987-1.865 15.316-1.865h2.1126c1.3203 0 2.6407 1.066 2.6407 2.664s-1.0563 2.663-2.6407 2.663h-2.1126c-4.7532 0-9.5064.799-14.5238 1.864l-15.8441 3.995c-1.3204.267-2.3766 0-2.9048-.266h-.5281l-.2641-.266c-1.5844-1.066-2.1125-2.397-2.1125-3.196-.2641-1.332-.2641-3.196-.2641-3.196 0-.533 0-1.066 0-1.332l-20.3333-6.126c-5.5455-1.864-11.09092.799-13.20347 5.86l53.07787 24.236c6.6017 1.865 13.7316 1.598 20.3333-.799l.5282-.266 24.2941-7.191c1.057-.799 2.377-1.065 3.697-1.065z"></path><path d="m80.9881 123.905h-8.753c-1.8567 0-3.4481-1.332-3.9786-3.197v-.266l-.5305-3.197c-1.061-.266-2.1219-.799-2.9176-1.331l-2.9177 1.864c-1.5914 1.066-3.9786 1.066-5.3048-.533l-6.3658-6.659c-1.061-1.598-1.061-3.462-.2653-4.794l2.122-2.93c-.5305-1.065-.7958-1.865-1.061-2.93l-3.1829-.5327c-1.8567-.2664-3.4481-1.8645-3.4481-3.9954l.2652-8.79c0-1.8645 1.3262-3.4627 3.1829-3.729l3.4481-.5327c.2653-1.0655.7958-2.1309 1.3263-3.1964l-2.3872-3.1963c-1.061-1.5982-.7957-3.7291.5305-5.0609l6.8962-6.659c1.5915-1.0655 3.4482-1.0655 4.7744-.2664l2.9176 1.8646c1.061-.5328 1.8567-.7991 2.9177-1.0655l.5305-3.1963c0-2.1309 1.8567-3.4627 3.9786-3.4627l9.0182.2663c1.8567 0 3.4481 1.3318 3.7134 3.1964l.5305 3.1963c1.0609.2664 2.1219.7991 2.9176 1.3318l2.9177-1.8645c1.5914-1.0655 3.7134-.7991 5.0396.5327l6.6314 6.9254c1.061 1.5982 1.061 3.4627.265 4.7945l-2.122 2.93c.53 1.0654.796 1.8645 1.061 3.1963l3.183.5327c1.856.2664 3.448 1.8646 3.448 3.9955v8.7899c0 1.8645-1.326 3.4627-3.183 3.9954h-3.183c-.265 1.065-.796 2.131-1.326 3.196l1.857 2.93c1.061 1.598.795 3.729-.531 5.061l-6.3657 6.393c-1.3262 1.332-3.4481 1.598-5.0396.799l-.2652-.266-2.6524-2.131c-1.061.532-2.1219.799-3.1829 1.331l-.5305 3.197c-.2652 1.864-1.8567 3.463-3.9786 3.463zm-7.692-5.328h6.3658l1.0609-5.593 1.5915-.533c1.8567-.533 3.4481-1.065 5.3048-2.131l1.3262-.799 4.5091 3.196 5.0396-5.061-3.1829-4.794.7958-1.332c1.0609-1.598 1.5914-3.1962 1.8566-4.7943l.2653-1.8646 5.5702-.799v-6.3927l-5.0397-1.0655-.5305-1.5981c-.5305-1.8646-1.3262-3.7291-2.1219-5.3272l-.7958-1.3319 3.1829-4.5281-4.5091-4.7945-4.7743 3.1963-1.3262-.7991c-1.5915-1.0654-3.1829-1.5981-4.5091-1.8645l-1.8567-.2663-.7958-5.5936-6.631-.2664-.7957 5.3272-1.5915.5328c-1.8567.5327-3.7133 1.3318-5.3048 2.1308l-1.5914.5328-4.5091-3.1964-5.0396 4.7945 3.1829 4.7945-.7958 1.3319c-.7957 1.5981-1.5914 3.1963-2.1219 5.0608l-.5305 1.5982-5.3048.7991-.2652 6.3926 5.3048 1.0655.5305 1.5981c.5305 1.8646 1.3262 3.7291 2.1219 5.3271l.7957 1.332-3.1829 5.061 5.0396 5.061 4.7744-3.197 1.3262.799c1.5914 1.066 3.1829 1.599 4.5091 1.865l1.8567.266zm3.4481-12.519c-8.4877 0-15.384-6.9251-15.384-15.4486 0-8.5236 6.8963-15.449 15.384-15.449s15.384 6.9254 15.384 15.449c0 8.7899-6.8963 15.4486-15.384 15.4486zm0-25.304c-5.57 0-10.0791 4.5281-10.0791 10.1217s4.5091 10.1213 10.0791 10.1213c5.5701 0 10.0792-4.5277 10.0792-10.1213s-4.5091-10.1217-10.0792-10.1217z"></path></g></svg> 