<?xml version="1.0" encoding="UTF-8"?> <svg xmlns="http://www.w3.org/2000/svg" fill="none" height="138" viewBox="0 0 139 138" width="139"><g fill="#000c56"><path d="m38.2218 137.847c-.7778 0-1.5556-.192-2.3334-.576-2.7221-1.345-3.6944-4.417-2.3333-7.106l46.8606-92.3693v-32.26208c0-2.88055 2.3333-5.184987 5.25-5.184987h19.0553c2.917 0 5.25 2.304437 5.25 5.184987v12.09828c0 2.8806-2.333 5.185-5.25 5.185h-20.4164v14.7868l53.4714 92.5613c.389.768.584 1.537.584 2.305 0 2.88-2.334 5.185-5.25 5.185h-94.8882zm44.1384-95.6344-45.3051 89.6814c-.3889.768 0 1.536.5833 1.92.1945.192.3889 0 .5834.192h94.6932c.389 0 .778-.192.972-.384.195-.192.389-.576.389-.96 0-.192 0-.384-.194-.576zm1.9444-23.2364 20.6104.192c.778 0 1.362-.5761 1.362-1.3442v-12.09835c0-.76814-.584-1.34425-1.362-1.34425h-19.0549c-.7777 0-1.3611.57611-1.3611 1.34425v13.25055z"></path><path d="m38.8396 137.847h-32.8006c-.7584 0-1.70639-.194-2.27519-.581-1.32719-.581-2.08559-1.744-2.65438-3.1-.379199-1.357-.379198-2.713.3792-4.069l39.62617-80.9881c.948-1.7438 2.6544-2.9063 4.5503-2.9063 1.896-.1937 3.792.9688 4.74 2.9063l11.5655 21.1189-3.2231 1.9375-11.7552-21.3126c-.1896-.5813-.7584-.7751-1.1376-.7751-.5688 0-1.1376.3875-1.3272.7751l-39.6261 80.9883c-.18959.387-.18959.775 0 1.162.1896.388.3792.581.7584.775.1896.194.3792.194.5688.194h32.8006v3.875z"></path></g></svg> 