<?xml version="1.0" encoding="UTF-8"?> <svg xmlns="http://www.w3.org/2000/svg" fill="none" height="171" viewBox="0 0 138 171" width="138"><g fill="#093"><path d="m92.9203 171h-44.1745l.2599-2.845c.5197-6.985-.2599-10.865-.7796-12.158-1.5591 0-3.378.258-5.4568.258-10.1342.776-22.607 1.811-27.804-4.656-2.3386-2.846-2.8583-6.467-1.5591-11.123l.2599-.518s0-.258.2598-.517c.2599-1.035-.2598-2.069-1.0394-2.587h-.2598c-1.0394-.776-2.85836-2.069-2.3387-4.656.2599-.776.5197-1.293.7796-1.811-1.55911-1.552-3.37807-3.88-1.55912-6.467 1.81892-2.587 1.55912-3.88 1.03942-4.915h-.2599c-.77951-.258-1.81892-.517-3.37802-.776-5.19699-1.293-6.496239-4.139-6.756089-5.691-.5197-2.328.25985-4.656 2.598499-6.725 2.0788-1.811 3.89775-3.881 5.97654-6.2088 1.29927-1.2934 2.59847-2.8455 3.89777-4.3976 2.3386-2.5868 3.1182-6.467 2.0788-10.6059-2.3387-5.1736-3.3781-10.6059-3.1182-15.5208 1.2992-25.0921 15.591-41.3889 41.3161-47.0799l1.0394 4.9149c-23.6463 5.4323-36.1191 19.6598-37.1585 42.4236-.2599 4.1389.5197 8.5365 2.5985 13.1927l.2598.5174c1.5591 5.9497.5197 11.8993-3.1182 15.7795-1.5591 1.5519-2.8583 2.8459-3.8977 4.3979-2.0788 2.328-4.15761 4.656-6.23641 6.467-.77955.517-1.03941 1.293-.77956 1.552 0 .517.77956 1.293 3.1182 1.811 1.55907.258 2.33867.517 3.11817.776 1.819.517 3.1182.776 3.8978 2.845v.259c.5197 1.811 1.8189 4.915-1.0394 9.312.5197.518 1.0394 1.035 1.2992 1.294.5197.258.7796.776 1.0394 1.034.7796 1.035.7796 1.811.5197 2.329-.2598.776-.5197 1.293-1.0394 1.81 2.3387 1.811 3.6379 4.915 2.8584 8.019l-.2599.518s0 .258-.2598.517c-.7796 2.846-.5197 4.915.5197 6.208 3.378 4.139 15.3311 3.363 23.3865 2.587 2.5985-.258 4.9371-.258 6.7561-.517 1.0394 0 2.0788.517 2.8583 1.293 2.3387 2.587 2.5985 9.313 2.3387 13.71h33.2607v-2.845l-.5197-24.575 1.2993-.776c.2598-.259 1.0394-.517 1.8189-.776 21.3074-10.088 32.2214-26.385 32.2214-48.6318h5.197c0 16.8138-5.977 39.8368-35.0797 53.2878z"></path><path d="m91 24h-18v-18h18zm-14.3478-3.913h10.1739v-10.17396h-10.1739z"></path><path d="m135 31h-13v-15h13zm-9.176-4.4118h5.352v-6.1764h-5.352z"></path><path d="m138 51h-16v-18h16zm-12.418-3.9706h8.836v-10.0588h-8.836z"></path><path d="m128 14h-17v-14h17zm-12.82-3.5h8.64v-7.23333h-8.64z"></path><path d="m97 87h-24v-26h24zm-20.087-4.2391h16.174v-17.5218h-16.174z"></path><path d="m90.752 60h-30.752v-31h31v31zm-27.032-3.6905h23.56v-23.373h-23.56z"></path><path d="m118 41h-25v-25h25zm-21.0937-3.9062h17.1877v-17.1876h-17.1877z"></path><path d="m111 61h-18v-18h18zm-14.0625-4.2188h9.5625v-9.5624h-9.5625z"></path><path d="m118 80h-17v-19h17zm-12.952-4.5238h8.904v-9.9524h-8.904z"></path></g></svg> 