<svg height="26.11" viewBox="0 0 24.09 26.11" width="24.09" xmlns="http://www.w3.org/2000/svg"><g fill="#fff"><path d="m22.42 26.11h-20.31a1.94 1.94 0 0 1 -1.83-.74l-.07-.11a2.12 2.12 0 0 1 .1-2c.58-1.36 3.48-7.96 3.48-7.96a3 3 0 0 1 3.46-2.07l.22.09a11.32 11.32 0 0 0 4.64.88 11.87 11.87 0 0 0 4.57-.9l.24-.08a3.11 3.11 0 0 1 3.42 2.12s2.89 6.57 3.49 8l.06.19a1.84 1.84 0 0 0 .08.3 1.78 1.78 0 0 1 -.09 1.5 1.54 1.54 0 0 1 -1.46.78zm-20.3-2h19.88a.29.29 0 0 0 0-.11c-.67-1.57-3.46-7.91-3.46-7.91a1.2 1.2 0 0 0 -1.12-.92 14.05 14.05 0 0 1 -5.26 1 13.26 13.26 0 0 1 -5.41-1c-.25 0-.75.05-1 .89 0 .05-2.92 6.65-3.52 8z"/><path d="m12 12.6a6.31 6.31 0 0 1 -4.49-1.91 6 6 0 0 1 -1.7-4.42 6 6 0 0 1 1.71-4.36 6.29 6.29 0 1 1 4.48 10.69zm0-10.6a4.25 4.25 0 0 0 -3 1.3 4 4 0 0 0 -1.15 3 4.09 4.09 0 0 0 1.15 3 4.25 4.25 0 0 0 3 1.3 4.36 4.36 0 0 0 4.3-4.3 4.26 4.26 0 0 0 -4.3-4.3z"/></g></svg>