<svg height="27.99" viewBox="0 0 28 27.99" width="28" xmlns="http://www.w3.org/2000/svg"><path d="m20.54 28a20.77 20.77 0 0 1 -14.44-6 20.63 20.63 0 0 1 -6.1-15 7.34 7.34 0 0 1 5.62-6.93 3.53 3.53 0 0 1 3.78 1.68l2.67 4.74a3.51 3.51 0 0 1 -.55 4.17l-2 2a11.41 11.41 0 0 0 5.79 5.8l2-2a3.47 3.47 0 0 1 4.18-.57l4.75 2.7a3.49 3.49 0 0 1 1.69 3.76 7.24 7.24 0 0 1 -6.87 5.65zm-13-7.45a19 19 0 0 0 13 5.45h.46a5.23 5.23 0 0 0 5-4.08 1.46 1.46 0 0 0 -.73-1.58l-4.74-2.7a1.48 1.48 0 0 0 -1.78.24l-2.19 2.19a1.65 1.65 0 0 1 -1.86.34 13.34 13.34 0 0 1 -7.12-7.12 1.65 1.65 0 0 1 .36-1.84l2.18-2.19a1.5 1.5 0 0 0 .24-1.79l-2.7-4.73a1.51 1.51 0 0 0 -1.66-.74 5.33 5.33 0 0 0 -4 5 18.63 18.63 0 0 0 5.49 13.52z" fill="#fff"/></svg>