<svg height="608.4" viewBox="0 0 331.15 608.4" width="331.15" xmlns="http://www.w3.org/2000/svg"><g fill="#0d0d5e"><path d="m147.69 10.19a7.54 7.54 0 1 1 -4.41-9.71 7.54 7.54 0 0 1 4.41 9.71"/><path d="m165.41 314.67c-92.53-98.24-56.5-208.73-47.66-231.42a19.67 19.67 0 0 0 19.25-16.09l.39-2.16a65.36 65.36 0 0 1 19.29-35.66l-22.29-8.71-22.3-8.71a65.28 65.28 0 0 1 -10 39.29l-1.09 1.85a19.69 19.69 0 0 0 3 24.66c-9.41 25.22-46.29 144.33 50.6 247.2 97.01 103.08 65.09 272.88 64.76 274.57a7.46 7.46 0 0 0 5.89 8.77 7.81 7.81 0 0 0 1.44.14 7.47 7.47 0 0 0 7.33-6c1.42-7.26 33.8-179-68.61-287.71"/><path d="m201.92 112.17a7.54 7.54 0 1 1 3.81-10 7.54 7.54 0 0 1 -3.81 10"/><path d="m155.7 143.36a65.44 65.44 0 0 1 38.92-11.36l-9.46-22-9.46-22a65.23 65.23 0 0 1 -35 20.48l-2.14.47a19.73 19.73 0 1 0 15.31 35.58z"/><path d="m206.54 191.91a7.54 7.54 0 1 1 2.77-10.3 7.55 7.55 0 0 1 -2.77 10.3"/><path d="m163.75 227.66a65.36 65.36 0 0 1 37.56-15.24l-11.66-20.9-11.65-20.91a65.29 65.29 0 0 1 -32.7 23.95l-2.09.69a19.73 19.73 0 1 0 18.87 33.83z"/><path d="m242.69 256.21a7.54 7.54 0 1 1 1.92-10.49 7.54 7.54 0 0 1 -1.92 10.49"/><path d="m203 295.36a65.41 65.41 0 0 1 36.19-18.27l-13.33-19.88-13.34-19.88a65.28 65.28 0 0 1 -30.63 26.56l-2 .85a19.73 19.73 0 1 0 21.58 32.17z"/><path d="m292 323.49a7.54 7.54 0 1 1 1.23-10.59 7.55 7.55 0 0 1 -1.23 10.59"/><path d="m254.9 365.15a65.31 65.31 0 0 1 34.92-20.6l-14.61-19-14.61-19a65.33 65.33 0 0 1 -28.82 28.49l-2 1a19.73 19.73 0 1 0 23.64 30.68z"/><path d="m327.61 407.12a7.54 7.54 0 1 1 2.39-10.39 7.54 7.54 0 0 1 -2.39 10.39"/><path d="m286.16 444.42a65.25 65.25 0 0 1 37-16.6l-12.42-20.47-12.41-20.46a65.31 65.31 0 0 1 -31.83 25.11l-2.06.76a19.73 19.73 0 1 0 20.09 33.11z"/><path d="m114.93 439.07a7.54 7.54 0 1 1 -6.7 8.29 7.52 7.52 0 0 1 6.7-8.29"/><path d="m168.51 423.64a65.32 65.32 0 0 1 -40.51-1.23l2.22 23.83 2.22 23.83a65.36 65.36 0 0 1 39.59-8.7l2.18.22a19.73 19.73 0 1 0 -3.59-38.59z"/><path d="m81.9 353.93a7.54 7.54 0 1 1 -8 7 7.54 7.54 0 0 1 8-7"/><path d="m137.34 347.93a65.28 65.28 0 0 1 -39.71-8.17l-1.9 23.86-1.9 23.86a65.29 65.29 0 0 1 40.49-1.77l2.12.59a19.73 19.73 0 1 0 3.08-38.61z"/><path d="m34.45 254.84a7.54 7.54 0 1 1 -10.13 3.31 7.53 7.53 0 0 1 10.13-3.31"/><path d="m87.79 271.09a65.4 65.4 0 0 1 -33.31-23.09l-11.12 21.2-11.11 21.2a65.31 65.31 0 0 1 37.94 14.27l1.71 1.33a19.73 19.73 0 1 0 18-34.3z"/><path d="m12.26 157.3a7.54 7.54 0 1 1 -10.6 1.15 7.53 7.53 0 0 1 10.6-1.15"/><path d="m61.1 184.21a65.33 65.33 0 0 1 -27.82-29.48l-15.28 18.45-15.23 18.44a65.3 65.3 0 0 1 34.23 21.8l1.4 1.69a19.73 19.73 0 1 0 24.6-29.85z"/><path d="m16.05 60.57a7.54 7.54 0 1 1 -10.66.43 7.54 7.54 0 0 1 10.66-.41"/><path d="m62.89 90.82a65.38 65.38 0 0 1 -25.7-31.35l-16.5 17.34-16.5 17.34a65.28 65.28 0 0 1 32.57 24.12l1.24 1.79a19.73 19.73 0 1 0 26.74-28.06z"/></g></svg>